<svg width="41" height="41" viewBox="0 0 41 41" fill="none" xmlns="http://www.w3.org/2000/svg">
<g clip-path="url(#clip0_237_1064)">
<path d="M14.5847 3.5332H5.35375C4.07152 3.5332 2.98186 3.98197 2.08424 4.87925C1.18705 5.77669 0.738281 6.86636 0.738281 8.14867V17.3793C0.738281 18.6615 1.18679 19.751 2.08424 20.6483C2.98177 21.5455 4.07178 21.9944 5.35375 21.9944H10.7383C11.3792 21.9944 11.9242 22.2189 12.3729 22.6675C12.8217 23.1158 13.046 23.661 13.046 24.3023V25.0711C13.046 26.7699 12.4449 28.2198 11.2431 29.4219C10.0412 30.6235 8.59101 31.2245 6.89201 31.2245H5.35375C4.93681 31.2245 4.57636 31.3771 4.27174 31.6814C3.96737 31.9857 3.81506 32.3464 3.81506 32.7631V35.8404C3.81506 36.2564 3.96737 36.6178 4.27174 36.9221C4.57662 37.2263 4.93672 37.3791 5.35375 37.3791H6.8921C8.55893 37.3791 10.1495 37.0541 11.664 36.4052C13.1784 35.7563 14.4884 34.8787 15.5943 33.7728C16.6999 32.6669 17.5773 31.3572 18.2263 29.8427C18.8752 28.3282 19.1998 26.7378 19.1998 25.0712V8.14833C19.1998 6.86602 18.751 5.77644 17.8538 4.87916C16.9565 3.98188 15.8666 3.5332 14.5847 3.5332Z" fill="#3797E4"/>
<path d="M39.3921 4.87925C38.4949 3.98197 37.4051 3.5332 36.1229 3.5332H26.8923C25.6101 3.5332 24.5204 3.98197 23.6231 4.87925C22.7259 5.77678 22.2773 6.86636 22.2773 8.14867V17.3793C22.2773 18.6615 22.7259 19.751 23.6231 20.6483C24.5204 21.5455 25.6102 21.9944 26.8923 21.9944H32.2769C32.9177 21.9944 33.4631 22.2189 33.9118 22.6675C34.3601 23.1161 34.5849 23.661 34.5849 24.3023V25.0711C34.5849 26.7699 33.9838 28.2198 32.7817 29.4219C31.5799 30.6235 30.1301 31.2245 28.4309 31.2245H26.8923C26.4757 31.2245 26.1149 31.3771 25.8106 31.6814C25.5061 31.9857 25.3536 32.3464 25.3536 32.7631V35.8404C25.3536 36.2564 25.5061 36.6178 25.8106 36.9221C26.1148 37.2263 26.4756 37.3791 26.8923 37.3791H28.4309C30.0975 37.3791 31.6879 37.0541 33.2026 36.4052C34.7168 35.7563 36.0267 34.8787 37.1326 33.7728C38.2384 32.6669 39.1164 31.3568 39.765 29.8427C40.4138 28.3286 40.7385 26.7378 40.7385 25.0712V8.14833C40.7383 6.86602 40.2899 5.77644 39.3921 4.87925Z" fill="#3797E4"/>
</g>
<defs>
<clipPath id="clip0_237_1064">
<rect width="40.0001" height="40" fill="white" transform="translate(0.738281 0.456055)"/>
</clipPath>
</defs>
</svg>
