<svg width="40" height="40" viewBox="0 0 40 40" fill="none" xmlns="http://www.w3.org/2000/svg">
<path fill-rule="evenodd" clip-rule="evenodd" d="M13.5983 31.5482H31.1829V29.6353H13.5983V31.5482ZM31.5684 32.3192H13.2137C13.0002 32.3192 12.8281 32.1466 12.8281 31.9338V29.2498C12.8281 29.037 12.9999 28.8643 13.2136 28.8643L31.5684 28.8643C31.7813 28.8643 31.9537 29.037 31.9537 29.2498L31.9541 31.9338C31.9541 32.1465 31.7811 32.3193 31.5684 32.3192Z" fill="#3797E4"/>
<path fill-rule="evenodd" clip-rule="evenodd" d="M16.6551 29.6352C16.4422 29.6352 16.2695 29.4625 16.2695 29.2497L16.2699 26.5657C16.2699 26.3529 16.4422 26.1803 16.6551 26.1803C16.8679 26.1803 17.0405 26.353 17.0405 26.5658L17.0407 29.2497C17.0407 29.4625 16.8679 29.6352 16.6551 29.6352ZM28.1275 29.6352C27.9139 29.6352 27.7417 29.4625 27.7417 29.2497L27.7418 26.5657C27.7418 26.3529 27.9136 26.1803 28.1272 26.1803C28.3403 26.1803 28.5127 26.353 28.5127 26.5658L28.5127 29.2497C28.5127 29.4625 28.34 29.6352 28.1275 29.6352Z" fill="#3797E4"/>
<path fill-rule="evenodd" clip-rule="evenodd" d="M13.5983 26.1804H31.1829V24.2674H13.5983V26.1804ZM31.5684 26.9514H13.2137C13.0002 26.9514 12.8281 26.7788 12.8281 26.5659V23.882C12.8281 23.6691 12.9999 23.4965 13.2136 23.4965L31.5684 23.4965C31.7813 23.4965 31.9537 23.6692 31.9537 23.882L31.9541 26.5658C31.9541 26.7787 31.7811 26.9514 31.5684 26.9514Z" fill="#3797E4"/>
<path fill-rule="evenodd" clip-rule="evenodd" d="M37.27 24.2674H31.5672C31.3544 24.2674 31.1816 24.0949 31.1816 23.882C31.1817 23.6692 31.3542 23.4966 31.567 23.4966L36.7681 23.4965L34.986 16.8477H31.3819C31.169 16.8477 30.9961 16.6751 30.9961 16.4623C30.9963 16.2494 31.1687 16.0768 31.3816 16.0768L35.2823 16.0768C35.4565 16.0768 35.609 16.194 35.6548 16.3627L37.6426 23.7825C37.674 23.8981 37.6489 24.0218 37.5758 24.1166C37.5027 24.2121 37.3903 24.2675 37.27 24.2674Z" fill="#3797E4"/>
<path fill-rule="evenodd" clip-rule="evenodd" d="M29.3945 24.2674C29.3613 24.2674 29.3276 24.2634 29.2947 24.2546C29.0892 24.1992 28.967 23.988 29.0216 23.7824L31.2727 15.3804H27.5016C27.2887 15.3804 27.1158 15.2086 27.1158 14.995L27.1159 12.6869C27.1159 10.3523 25.2157 8.45219 22.8812 8.45219H21.561V10.5089H22.5993C23.9292 10.5089 25.0109 11.5915 25.0109 12.9214L25.0112 14.9476C25.0112 15.1603 24.8383 15.3331 24.6254 15.3331H15.0068C14.7943 15.3331 14.6213 15.1604 14.6213 14.9476L14.6216 12.9213C14.6216 11.5914 15.7039 10.5089 17.0338 10.5089L18.0725 10.5089V8.45219H16.752C14.4167 8.45219 12.5172 10.3523 12.5172 12.6869L12.5176 14.9949C12.5176 15.2078 12.3454 15.3805 12.1333 15.3805C12.1334 15.3804 12.1325 15.3805 12.1325 15.3805C12.1327 15.3804 12.1318 15.3805 12.1318 15.3805L10.0268 15.3804V23.4965H18.4845C18.6973 23.4965 18.8697 23.6692 18.8697 23.882C18.8697 24.0947 18.697 24.2675 18.4842 24.2675L9.64159 24.2674C9.42873 24.2674 9.25586 24.0948 9.25586 23.882L9.256 14.9957C9.256 14.7821 9.42855 14.6103 9.64136 14.6095H11.7463V12.6869C11.7463 9.92668 13.9917 7.68122 16.7519 7.68122L18.4577 7.68115C18.6706 7.68115 18.8432 7.85389 18.8432 8.06672L18.8434 10.8944C18.8434 11.1071 18.6705 11.2799 18.4577 11.2799L17.0338 11.2798C16.1289 11.2798 15.3923 12.0163 15.3923 12.9214L15.3924 14.5621H24.24V12.9213C24.24 12.0162 23.5043 11.2799 22.5992 11.2799L21.1754 11.2798C20.9618 11.2798 20.7899 11.1072 20.7899 10.8944L20.7901 8.06667C20.7901 7.85382 20.9618 7.68122 21.1754 7.68122L22.8812 7.68115C25.6415 7.68115 27.8868 9.92668 27.8868 12.6869L27.8872 14.6095H31.7754C31.8954 14.6095 32.0083 14.6657 32.0814 14.7605C32.1545 14.8561 32.1785 14.9797 32.148 15.0954L29.766 23.9815C29.7205 24.1542 29.5645 24.2675 29.3945 24.2674Z" fill="#3797E4"/>
<path fill-rule="evenodd" clip-rule="evenodd" d="M3.11497 20.2825H9.2561V18.5943H3.11497V20.2825ZM9.64168 21.0534H2.72936C2.51651 21.0534 2.34375 20.8808 2.34375 20.668V18.2089C2.34375 17.996 2.51646 17.8234 2.72922 17.8234L9.64168 17.8234C9.85456 17.8234 10.0269 17.9961 10.0269 18.2089V20.668C10.0269 20.8807 9.85428 21.0534 9.64168 21.0534Z" fill="#3797E4"/>
<path fill-rule="evenodd" clip-rule="evenodd" d="M5.12785 18.5943C4.91426 18.5943 4.74219 18.4217 4.74219 18.2089L4.74223 14.9981C4.74223 14.7853 4.91402 14.6127 5.12766 14.6127C5.3407 14.6126 5.51314 14.7853 5.51314 14.9981L5.51346 18.2089C5.51346 18.4217 5.34049 18.5944 5.12785 18.5943ZM6.82312 18.5943C6.61027 18.5943 6.43751 18.4217 6.43751 18.2089V14.9981C6.43751 14.7853 6.61018 14.6127 6.82298 14.6127C7.03598 14.6126 7.20848 14.7853 7.20848 14.9981L7.20874 18.2089C7.20874 18.4217 7.03575 18.5944 6.82312 18.5943Z" fill="#3797E4"/>
<path fill-rule="evenodd" clip-rule="evenodd" d="M4.87926 14.2207C4.91866 14.5789 5.47338 14.7725 5.97531 14.7725C6.47806 14.7724 7.03221 14.5789 7.07154 14.2207L7.32624 11.8821C7.26299 11.8187 6.99041 11.6982 6.44353 11.6661C5.57313 11.6155 4.82608 11.805 4.63176 11.9432L4.87926 14.2207ZM5.97535 15.5434C5.11525 15.5434 4.20612 15.1604 4.11299 14.3043L3.85689 11.948C3.84099 11.7986 3.86803 11.5143 4.23502 11.2846C4.94431 10.8397 6.92377 10.7169 7.69478 11.1995C8.08697 11.4452 8.11318 11.7737 8.09394 11.948L7.83797 14.3043C7.74544 15.1603 6.83542 15.5434 5.97535 15.5434Z" fill="#3797E4"/>
<path fill-rule="evenodd" clip-rule="evenodd" d="M5.12785 24.2651C4.91426 24.2651 4.74219 24.0924 4.74219 23.8796L4.74223 20.6681C4.74223 20.4552 4.91402 20.2826 5.12766 20.2826C5.3407 20.2826 5.51314 20.4553 5.51314 20.6681L5.51346 23.8796C5.51346 24.0924 5.34049 24.2651 5.12785 24.2651ZM6.82312 24.2651C6.61027 24.2651 6.43751 24.0924 6.43751 23.8796V20.6681C6.43751 20.4552 6.61018 20.2826 6.82298 20.2826C7.03598 20.2826 7.20848 20.4553 7.20848 20.6681L7.20874 23.8796C7.20874 24.0924 7.03575 24.2651 6.82312 24.2651Z" fill="#3797E4"/>
<path fill-rule="evenodd" clip-rule="evenodd" d="M4.63219 26.9343C4.82627 27.0724 5.57313 27.262 6.44367 27.2106C6.99064 27.1793 7.26281 27.058 7.32629 26.9946L7.07196 24.6568C7.03258 24.2978 6.4782 24.1051 5.97545 24.1051C5.47352 24.1051 4.91861 24.2978 4.87928 24.6568L4.63219 26.9343ZM6.16597 27.9872C5.41355 27.9872 4.62867 27.8394 4.23516 27.5929C3.86821 27.3632 3.84086 27.0789 3.85693 26.9296L4.11325 24.5732C4.20649 23.7172 5.11534 23.3341 5.97545 23.3341C6.8356 23.3341 7.74544 23.7172 7.83783 24.5733L8.09435 26.9295C8.1135 27.1038 8.08679 27.4315 7.69492 27.6772C7.35203 27.8924 6.76893 27.9872 6.16597 27.9872Z" fill="#3797E4"/>
<path fill-rule="evenodd" clip-rule="evenodd" d="M20.9871 24.1396C20.7743 24.1396 20.6016 23.967 20.6016 23.7542V19.5266C20.6016 19.3139 20.7742 19.1412 20.987 19.1412C21.2007 19.1412 21.3725 19.3139 21.3725 19.5267L21.3727 23.7541C21.3727 23.967 21.2006 24.1397 20.9871 24.1396Z" fill="#3797E4"/>
<path fill-rule="evenodd" clip-rule="evenodd" d="M27.1222 21.638H18.1123C17.8994 21.638 17.7266 21.4654 17.7266 21.2526C17.7267 21.0389 17.8993 20.8671 18.1121 20.8671L27.1222 20.8671C27.3357 20.8671 27.5074 21.039 27.5074 21.2526C27.5078 21.4653 27.3355 21.638 27.1222 21.638Z" fill="#3797E4"/>
<path fill-rule="evenodd" clip-rule="evenodd" d="M27.1221 22.4042C26.9092 22.4042 26.7363 22.2324 26.7363 22.0188L26.7364 20.4857C26.7364 20.2728 26.909 20.1002 27.1219 20.1002C27.3356 20.1002 27.5073 20.2729 27.5073 20.4857L27.5076 22.0188C27.5076 22.2324 27.3354 22.4043 27.1221 22.4042Z" fill="#3797E4"/>
<path fill-rule="evenodd" clip-rule="evenodd" d="M18.1141 22.4042C17.9005 22.4042 17.7285 22.2324 17.7285 22.0188V20.4857C17.7285 20.2728 17.9004 20.1002 18.114 20.1002C18.327 20.1002 18.4995 20.2729 18.4995 20.4857L18.4997 22.0188C18.4997 22.2324 18.3268 22.4043 18.1141 22.4042Z" fill="#3797E4"/>
<path fill-rule="evenodd" clip-rule="evenodd" d="M11.5946 20.3997C11.3817 20.3997 11.209 20.2271 11.209 20.0135L11.2093 18.8634C11.2093 18.6506 11.3817 18.4779 11.5945 18.4779C11.8074 18.4779 11.98 18.6506 11.98 18.8634L11.9801 20.0134C11.9801 20.2271 11.8073 20.3997 11.5946 20.3997Z" fill="#3797E4"/>
<path fill-rule="evenodd" clip-rule="evenodd" d="M13.2119 20.3997C12.999 20.3997 12.8262 20.2271 12.8262 20.0135L12.8263 18.8634C12.8263 18.6506 12.9988 18.4779 13.2117 18.4779C13.4248 18.4779 13.5971 18.6506 13.5971 18.8634V20.0134C13.5971 20.2271 13.4245 20.3997 13.2119 20.3997Z" fill="#3797E4"/>
<path fill-rule="evenodd" clip-rule="evenodd" d="M14.8289 20.3997C14.616 20.3997 14.4434 20.2271 14.4434 20.0135L14.4436 18.8634C14.4436 18.6506 14.6161 18.4779 14.8288 18.4779C15.0417 18.4779 15.2144 18.6506 15.2144 18.8634L15.2145 20.0134C15.2145 20.2271 15.0417 20.3997 14.8289 20.3997Z" fill="#3797E4"/>
<path fill-rule="evenodd" clip-rule="evenodd" d="M31.0917 15.3802C30.8789 15.3802 30.707 15.2084 30.707 14.9948L30.7072 13.2456C30.7072 13.0328 30.8788 12.8602 31.0916 12.8602H34.1491L34.6557 11.8715H29.6736V14.9947C29.6736 15.2084 29.5007 15.3803 29.2879 15.3803C29.0752 15.3802 28.9023 15.2084 28.9023 14.9948L28.9024 11.4861C28.9024 11.2732 29.0751 11.1006 29.2879 11.1006L35.2871 11.1006C35.4212 11.1006 35.5456 11.1705 35.6154 11.2853C35.6861 11.4002 35.6909 11.5431 35.6299 11.662L34.7281 13.4215C34.6616 13.55 34.5297 13.6312 34.3843 13.6312L31.4773 13.6311V14.9947C31.4773 15.2084 31.3053 15.3803 31.0917 15.3802Z" fill="#3797E4"/>
</svg>
