<svg width="44" height="44" viewBox="0 0 44 44" fill="none" xmlns="http://www.w3.org/2000/svg">
<path d="M22.0004 41.9375C21.0379 41.9375 20.1355 41.5594 19.4566 40.8805L16.3801 37.8039C15.959 37.3828 15.4004 37.1508 14.8074 37.1508H10.4504C8.46523 37.1508 6.84961 35.5352 6.84961 33.55V29.193C6.84961 28.6 6.61758 28.0414 6.19648 27.6203L3.11992 24.5438C1.71914 23.143 1.71914 20.857 3.11992 19.4562L6.19648 16.3797C6.61758 15.9586 6.84961 15.4 6.84961 14.807V10.45C6.84961 8.46484 8.46523 6.84922 10.4504 6.84922H14.8074C15.4004 6.84922 15.959 6.61719 16.3801 6.19609L19.4566 3.11953C20.1355 2.44062 21.0379 2.0625 22.0004 2.0625C22.9629 2.0625 23.8652 2.44062 24.5441 3.11953L27.6207 6.19609C28.0418 6.61719 28.6004 6.84922 29.1934 6.84922H33.5504C35.5355 6.84922 37.1512 8.46484 37.1512 10.45V14.807C37.1512 15.4 37.3832 15.9586 37.8043 16.3797L40.8809 19.4562C42.2816 20.857 42.2816 23.143 40.8809 24.5438L37.8043 27.6203C37.3832 28.0414 37.1512 28.6 37.1512 29.193V33.55C37.1512 35.5352 35.5355 37.1508 33.5504 37.1508H29.1934C28.6004 37.1508 28.0418 37.3828 27.6207 37.8039L24.5441 40.8805C23.8652 41.5594 22.9629 41.9375 22.0004 41.9375ZM10.4504 8.22422C9.22148 8.22422 8.22461 9.22109 8.22461 10.45V14.807C8.22461 15.7695 7.84648 16.6719 7.16758 17.3508L4.09102 20.4273C3.22305 21.2953 3.22305 22.7047 4.09102 23.5727L7.16758 26.6492C7.84648 27.3281 8.22461 28.2305 8.22461 29.193V33.55C8.22461 34.7789 9.22148 35.7758 10.4504 35.7758H14.8074C15.7699 35.7758 16.6723 36.1539 17.3512 36.8328L20.4277 39.9094C20.8488 40.3305 21.4074 40.5625 22.0004 40.5625C22.5934 40.5625 23.152 40.3305 23.573 39.9094L26.6496 36.8328C27.3285 36.1539 28.2309 35.7758 29.1934 35.7758H33.5504C34.7793 35.7758 35.7762 34.7789 35.7762 33.55V29.193C35.7762 28.2305 36.1543 27.3281 36.8332 26.6492L39.9098 23.5727C40.7777 22.7047 40.7777 21.2953 39.9098 20.4273L36.8332 17.3508C36.1543 16.6719 35.7762 15.7695 35.7762 14.807V10.45C35.7762 9.22109 34.7793 8.22422 33.5504 8.22422H29.1934C28.2309 8.22422 27.3285 7.84609 26.6496 7.16719L23.573 4.09062C23.152 3.66953 22.5934 3.4375 22.0004 3.4375C21.4074 3.4375 20.8488 3.66953 20.4277 4.09062L17.3512 7.16719C16.6723 7.84609 15.7699 8.22422 14.8074 8.22422H10.4504Z" fill="white"/>
<path d="M22.0008 34.5562C15.0742 34.5562 9.44531 28.9187 9.44531 22.0008C9.44531 15.0828 15.0742 9.44531 22.0008 9.44531C28.9273 9.44531 34.5562 15.0742 34.5562 22.0008C34.5562 28.9273 28.9273 34.5562 22.0008 34.5562ZM22.0008 10.8203C15.8305 10.8203 10.8203 15.8391 10.8203 22.0008C10.8203 28.1625 15.8305 33.1812 22.0008 33.1812C28.1711 33.1812 33.1812 28.1625 33.1812 22.0008C33.1812 15.8391 28.1711 10.8203 22.0008 10.8203Z" fill="white"/>
<path d="M26.8131 28.8754H17.1881C16.8787 28.8754 16.6123 28.6691 16.5264 28.377L13.7764 18.6918C13.699 18.4168 13.8022 18.116 14.0342 17.9441C14.2662 17.7723 14.5842 17.7637 14.8162 17.927L18.3482 20.2816L21.4076 15.3832C21.5365 15.1855 21.7514 15.0566 21.992 15.0566C22.2326 15.0566 22.4475 15.177 22.5764 15.3832L25.6357 20.2816L29.1678 17.927C29.4084 17.7637 29.7178 17.7723 29.9498 17.9441C30.1818 18.116 30.285 18.4082 30.2076 18.6918L27.4576 28.377C27.3889 28.6691 27.1225 28.8754 26.8131 28.8754ZM17.7037 27.5004H26.2975L28.3943 20.1098L25.8248 21.8285C25.6701 21.9316 25.4811 21.966 25.3006 21.9316C25.1201 21.8887 24.9568 21.7855 24.8623 21.6223L22.0006 17.0504L19.1475 21.6137C19.0529 21.7684 18.8896 21.8801 18.7092 21.923C18.5287 21.966 18.3397 21.923 18.185 21.8199L15.6154 20.1012L17.7037 27.5004Z" fill="white"/>
</svg>
