<svg width="45" height="45" viewBox="0 0 45 45" fill="none" xmlns="http://www.w3.org/2000/svg">
<path d="M36.7386 19.9548C37.6776 19.3078 38.6488 18.6389 38.6488 17.6213C38.6488 16.6033 37.6776 15.9344 36.7386 15.2874C36.2315 14.9382 35.537 14.4599 35.4539 14.148C35.3626 13.8065 35.7196 13.0523 36.0065 12.4467C36.4842 11.4369 36.9787 10.393 36.4861 9.54155C35.9869 8.6787 34.8249 8.58549 33.7014 8.49545C33.0414 8.44268 32.2199 8.37665 31.9795 8.13653C31.7393 7.89641 31.6736 7.07495 31.6209 6.41462C31.5308 5.29112 31.4379 4.12938 30.5751 3.63018C29.723 3.13762 28.6797 3.63176 27.6703 4.10948C27.0643 4.39635 26.3104 4.75337 25.9683 4.66207C25.6564 4.57897 25.1784 3.88452 24.8293 3.37774C24.1819 2.43875 23.5127 1.46753 22.4947 1.46753C21.4771 1.46753 20.8082 2.43875 20.1615 3.37774C19.8124 3.88484 19.3343 4.57897 19.0228 4.66238C18.6806 4.75401 17.9277 4.39699 17.3217 4.11011C16.3117 3.6324 15.2678 3.13857 14.4169 3.63176C13.5544 4.13096 13.4618 5.2927 13.3724 6.41589C13.32 7.07621 13.2546 7.89768 13.0144 8.1378C12.7746 8.37791 11.9532 8.44395 11.2932 8.49671C10.17 8.58707 9.00824 8.68028 8.50936 9.54313C8.0168 10.3949 8.51126 11.4385 8.9896 12.4479C9.27648 13.0533 9.6335 13.8071 9.54219 14.1487C9.4591 14.4605 8.76465 14.9385 8.25787 15.2877C7.31888 15.9347 6.34766 16.6036 6.34766 17.6213C6.34766 18.6386 7.31888 19.3078 8.25787 19.9545C8.76496 20.3036 9.4591 20.782 9.54219 21.0935C9.6335 21.4347 9.27648 22.1886 8.98929 22.7946C8.51126 23.8037 8.0168 24.8473 8.50905 25.6987C9.00793 26.5616 10.1697 26.6548 11.2932 26.7452C11.4763 26.7597 11.6713 26.7761 11.8634 26.796L6.81905 38.7808C6.62379 39.2446 6.70784 39.7678 7.03863 40.1464C7.36974 40.5255 7.87715 40.6794 8.36245 40.5486L11.1361 39.8089L12.7746 42.2923C13.048 42.7063 13.5204 42.9176 13.9828 42.8736C14.4627 42.83 14.8782 42.5273 15.0668 42.0837L19.6887 31.2044C20.4929 32.2501 21.2206 33.775 22.4947 33.775C23.7716 33.775 24.4986 32.2457 25.3058 31.2L29.9296 42.0841C30.1182 42.5273 30.5337 42.83 31.0136 42.8736C31.4761 42.9177 31.9485 42.7063 32.2218 42.2923L33.8729 39.8039L36.634 40.5486C37.1196 40.6794 37.6264 40.5255 37.9578 40.1464C38.2886 39.7678 38.3726 39.2446 38.1777 38.7811L33.1338 26.7979C33.3251 26.778 33.5191 26.7619 33.7014 26.7471C34.8249 26.6573 35.9866 26.5641 36.4858 25.7013C36.9784 24.8495 36.4842 23.8056 36.0062 22.7958C35.7196 22.1898 35.3626 21.436 35.4539 21.0948C35.537 20.7826 36.2315 20.3043 36.7386 19.9548ZM13.8549 41.5795L12.2167 39.0961C11.9041 38.6223 11.3265 38.4081 10.7867 38.5543L8.01175 39.2832L13.0915 27.2143C13.1924 27.3992 13.2503 27.7173 13.2804 27.9246C13.2902 28.0133 13.3122 28.0865 13.3715 28.8285C13.4609 29.9508 13.5531 31.1112 14.4157 31.6142C15.2684 32.1036 16.3114 31.6114 17.3195 31.1343C17.7094 30.9504 18.1603 30.7368 18.5242 30.6326L13.8549 41.5795ZM34.21 38.5546C33.6669 38.408 33.0903 38.6248 32.7794 39.0961L31.1207 41.5776L26.4716 30.6338C26.8901 30.7552 27.4057 31.0103 27.9261 31.2531C29.0612 31.7833 30.2844 32.2211 31.0417 31.1817C31.0566 31.1615 31.0757 31.1447 31.0898 31.1239C31.0934 31.1185 31.0956 31.1122 31.0992 31.1065C31.4837 30.5169 31.5536 29.6623 31.6205 28.8276C31.639 28.5957 31.6597 28.3445 31.6885 28.105C31.6907 28.086 31.6927 28.0664 31.6951 28.0475C31.7039 27.9786 31.7138 27.9116 31.7243 27.8459C31.74 27.7486 31.7573 27.6554 31.7776 27.5698C31.7863 27.5325 31.7967 27.4996 31.8065 27.4655C31.8322 27.3761 31.8603 27.293 31.8943 27.2286C31.8972 27.2229 31.9006 27.2181 31.9036 27.2128L36.9784 39.3002C35.5105 38.9049 34.1336 38.534 34.21 38.5546ZM34.8366 23.3494C35.108 23.9231 35.5181 24.7894 35.3655 25.0529C35.2062 25.3285 34.2385 25.4059 33.5977 25.4574C33.0791 25.4987 32.5531 25.5439 32.0859 25.6646C30.5706 25.9787 30.4401 27.324 30.3283 28.7261C30.2899 29.2061 30.237 29.8702 30.0981 30.2395C29.9051 30.7468 29.455 30.5368 28.4606 30.0749C28.4582 30.0737 28.4556 30.0724 28.453 30.0714C28.3954 30.0439 28.3753 30.0353 28.2238 29.9634C27.7124 29.7214 27.1916 29.4781 26.6874 29.3555C26.6501 29.3467 26.6122 29.3347 26.5752 29.3268C26.561 29.3239 26.5472 29.3233 26.5331 29.3204C26.0424 29.2259 25.5861 29.2646 25.1669 29.5441C24.6249 29.8869 24.1876 30.5147 23.7633 31.1305C23.3927 31.6682 22.8328 32.4809 22.4947 32.4809C22.1573 32.4809 21.5978 31.6682 21.2275 31.1305C19.8866 29.1827 19.2589 28.8111 17.0988 29.8086C16.9492 29.8777 16.8631 29.9172 16.7679 29.9621C16.1945 30.2335 15.3284 30.643 15.0649 30.4907C14.7901 30.3315 14.7133 29.3637 14.6621 28.7233C14.4521 26.0809 13.9691 25.6622 11.3968 25.4551C10.7564 25.4036 9.78863 25.3259 9.62939 25.0511C9.47711 24.7876 9.88721 23.9215 10.1589 23.3487C10.5757 22.4691 11.0063 21.5598 10.7927 20.7592C10.5861 19.9867 9.77568 19.4285 8.99213 18.8888C8.45439 18.5185 7.64177 17.9587 7.64177 17.6213C7.64177 17.2835 8.45439 16.724 8.99181 16.3537C9.77568 15.8137 10.5861 15.2554 10.7927 14.4826C11.0063 13.6827 10.5757 12.7734 10.1589 11.8938C9.88752 11.3206 9.47711 10.4546 9.62971 10.1911C9.78863 9.91594 10.7564 9.83822 11.3968 9.78704C12.3585 9.70963 13.3531 9.6297 13.9301 9.05278C14.507 8.47523 14.586 7.48063 14.6624 6.51857C14.7136 5.87815 14.7904 4.91072 15.0653 4.75148C15.3284 4.60014 16.1948 5.00866 16.7682 5.28006C17.6478 5.69616 18.5571 6.12648 19.3571 5.91258C20.1296 5.70595 20.6878 4.89555 21.2275 4.112C21.5978 3.57426 22.1573 2.76165 22.4947 2.76165C22.8328 2.76165 23.393 3.57426 23.7636 4.112C24.3032 4.89555 24.8615 5.70564 25.634 5.91227C26.4346 6.12585 27.3445 5.69553 28.2238 5.27911C28.7969 5.00803 29.6639 4.59793 29.9268 4.75022C30.2023 4.90945 30.2797 5.87751 30.3309 6.51825C30.4079 7.47999 30.4872 8.47459 31.0645 9.05183C31.6417 9.62875 32.6363 9.70837 33.5981 9.78546C34.2385 9.83696 35.2065 9.91436 35.3658 10.1896C35.5184 10.4531 35.1083 11.3194 34.8369 11.8928C34.4205 12.7721 33.9898 13.6817 34.2037 14.482C34.41 15.2548 35.2204 15.8131 36.0043 16.353C36.542 16.7233 37.3547 17.2832 37.3547 17.6213C37.3547 17.959 36.542 18.5189 36.0043 18.8895C35.2204 19.4291 34.41 19.9877 34.2034 20.7605C33.9898 21.5608 34.4202 22.4701 34.8366 23.3494Z" fill="white"/>
<path d="M22.4995 8.0437C17.2184 8.0437 12.9219 12.3399 12.9219 17.6213C12.9219 22.902 17.2184 27.1986 22.4995 27.1986C27.7805 27.1986 32.0771 22.902 32.0771 17.6213C32.0771 12.3399 27.7805 8.0437 22.4995 8.0437ZM22.4995 25.9045C17.9318 25.9045 14.216 22.1886 14.216 17.6213C14.216 13.0537 17.9318 9.33782 22.4995 9.33782C27.0671 9.33782 30.783 13.0537 30.783 17.6213C30.783 22.1886 27.0671 25.9045 22.4995 25.9045Z" fill="white"/>
<path d="M26.9005 15.5161H24.3499L23.5559 13.0852C23.4055 12.6252 22.9793 12.3162 22.4952 12.3162C22.0106 12.3165 21.5841 12.6264 21.434 13.0874L20.646 15.5161H18.0963C17.6117 15.5161 17.1854 15.8257 17.0357 16.2867C16.8856 16.7476 17.0483 17.2487 17.4401 17.534L19.5029 19.0345L18.7156 21.4609C18.5661 21.9219 18.7292 22.423 19.1216 22.7076C19.5133 22.992 20.041 22.992 20.4327 22.707L22.4943 21.2082L24.566 22.7108C24.961 22.9975 25.4886 22.993 25.8771 22.7102C26.2689 22.4252 26.4316 21.9244 26.2822 21.4635L25.4939 19.0345L27.5567 17.5337C27.9485 17.2487 28.1112 16.7476 27.9611 16.2867C27.8114 15.8257 27.3852 15.5161 26.9005 15.5161ZM24.6273 18.0642C24.2361 18.3492 24.0734 18.8499 24.2228 19.3106L24.8822 21.3415L23.1493 20.0847C22.9534 19.9425 22.7237 19.8714 22.494 19.8714C22.2643 19.8714 22.0343 19.9425 21.8381 20.0853L20.1162 21.3374L20.774 19.3106C20.9234 18.8499 20.7607 18.3492 20.3692 18.0639L18.6454 16.8102H20.7755C21.2608 16.8102 21.6874 16.5002 21.8368 16.039L22.4959 14.0077L23.16 16.0409C23.3101 16.5012 23.7363 16.8102 24.2206 16.8102H26.3514L24.6273 18.0642Z" fill="white"/>
</svg>
