<svg width="40" height="40" viewBox="0 0 40 40" fill="none" xmlns="http://www.w3.org/2000/svg">
<path fill-rule="evenodd" clip-rule="evenodd" d="M6.61355 3.11492C5.92531 3.11492 5.36474 3.67514 5.36474 4.36382L5.36477 35.6366C5.36477 36.3257 5.92531 36.8854 6.61355 36.8854L33.3859 36.8854C34.0742 36.8854 34.6347 36.3257 34.6347 35.6366V4.36389C34.6347 3.67514 34.0741 3.11499 33.3859 3.11499L6.61355 3.11492ZM33.3859 37.6565H6.61355C5.49967 37.6565 4.59375 36.7506 4.59375 35.6367L4.59382 4.36396C4.59382 3.25022 5.49967 2.34406 6.61355 2.34406L33.3859 2.34399C34.4998 2.34399 35.4057 3.25022 35.4057 4.36396L35.4058 35.6367C35.4058 36.7506 34.4998 37.6565 33.3859 37.6565Z" fill="#3797E4"/>
<path fill-rule="evenodd" clip-rule="evenodd" d="M35.0201 19.0131H4.97925C4.76646 19.0131 4.59375 18.8405 4.59375 18.6276C4.59382 18.4147 4.76642 18.2421 4.97925 18.2421L35.0201 18.2421C35.233 18.2421 35.4056 18.4147 35.4056 18.6276C35.4057 18.8404 35.233 19.0132 35.0201 19.0131Z" fill="#3797E4"/>
<path fill-rule="evenodd" clip-rule="evenodd" d="M13.5762 24.5491C13.194 24.5491 12.8823 24.8604 12.8823 25.243L12.8823 30.6554C12.8823 31.0381 13.1939 31.3494 13.5762 31.3494L26.4235 31.3493C26.8066 31.3493 27.1173 31.0381 27.1173 30.6555L27.1174 25.243C27.1174 24.8604 26.8065 24.5491 26.4234 24.5491L13.5762 24.5491ZM26.4235 32.1203H13.5762C12.7691 32.1203 12.1113 31.4633 12.1113 30.6555L12.1114 25.243C12.1114 24.4352 12.7691 23.7781 13.5762 23.7781L26.4235 23.7781C27.2314 23.7781 27.8883 24.4352 27.8883 25.243L27.8883 30.6554C27.8883 31.4633 27.2314 32.1204 26.4235 32.1203Z" fill="#3797E4"/>
<path fill-rule="evenodd" clip-rule="evenodd" d="M24.032 27.13H15.9656C15.7528 27.13 15.5801 26.9574 15.5801 26.7445C15.5802 26.5316 15.7528 26.359 15.9656 26.359H24.032C24.2448 26.359 24.4174 26.5316 24.4174 26.7445C24.4175 26.9574 24.2448 27.13 24.032 27.13Z" fill="#3797E4"/>
<path fill-rule="evenodd" clip-rule="evenodd" d="M24.032 29.5395H15.9656C15.7528 29.5395 15.5801 29.367 15.5801 29.1541C15.5802 28.9411 15.7528 28.7686 15.9656 28.7686L24.032 28.7686C24.2448 28.7686 24.4174 28.9412 24.4174 29.1541C24.4175 29.367 24.2448 29.5396 24.032 29.5395Z" fill="#3797E4"/>
<path fill-rule="evenodd" clip-rule="evenodd" d="M10.7839 19.0131C10.5711 19.0131 10.3992 18.8404 10.3992 18.6276L10.3992 14.1304C10.3992 13.5562 9.86352 13.0891 9.20577 13.0891C8.54812 13.0891 8.01316 13.5563 8.01316 14.1305L8.01323 18.6275C8.01323 18.8404 7.84049 19.0131 7.62766 19.0131C7.41485 19.0131 7.24219 18.8404 7.24219 18.6276V14.1304C7.24219 13.1312 8.12319 12.3181 9.20577 12.3181C10.2892 12.3181 11.1694 13.1312 11.1694 14.1305L11.1694 18.6275C11.1694 18.8404 10.9975 19.0131 10.7839 19.0131Z" fill="#3797E4"/>
<path fill-rule="evenodd" clip-rule="evenodd" d="M16.1812 19.0131C15.9684 19.0131 15.7957 18.8404 15.7957 18.6276L15.7957 14.1304C15.7957 13.5562 15.2608 13.0891 14.603 13.0891C13.9454 13.0891 13.4096 13.5563 13.4096 14.1305L13.4097 18.6275C13.4097 18.8404 13.2378 19.0131 13.0241 19.0131C12.8114 19.0131 12.6387 18.8404 12.6387 18.6276L12.6387 14.1304C12.6387 13.1312 13.5197 12.3181 14.603 12.3181C15.6857 12.3181 16.5666 13.1312 16.5666 14.1305L16.5667 18.6275C16.5667 18.8404 16.394 19.0131 16.1812 19.0131Z" fill="#3797E4"/>
<path fill-rule="evenodd" clip-rule="evenodd" d="M21.5769 19.0131C21.364 19.0131 21.1914 18.8404 21.1914 18.6276L21.1914 14.1304C21.1914 13.5562 20.6565 13.0891 19.9987 13.0891C19.341 13.0891 18.8061 13.5563 18.8061 14.1305L18.8062 18.6275C18.8062 18.8404 18.6335 19.0131 18.4207 19.0131C18.2079 19.0131 18.0352 18.8404 18.0352 18.6276L18.0352 14.1304C18.0352 13.1312 18.9162 12.3181 19.9987 12.3181C21.0813 12.3181 21.9623 13.1312 21.9623 14.1305L21.9624 18.6275C21.9624 18.8404 21.7897 19.0131 21.5769 19.0131Z" fill="#3797E4"/>
<path fill-rule="evenodd" clip-rule="evenodd" d="M26.9753 19.0131C26.7625 19.0131 26.5898 18.8404 26.5898 18.6276L26.5899 14.1304C26.5899 13.5562 26.0549 13.0891 25.3972 13.0891C24.7395 13.0891 24.2046 13.5563 24.2046 14.1305L24.2046 18.6275C24.2046 18.8404 24.0319 19.0131 23.8191 19.0131C23.6063 19.0131 23.4336 18.8404 23.4336 18.6276L23.4336 14.1304C23.4336 13.1312 24.3146 12.3181 25.3972 12.3181C26.4806 12.3181 27.3608 13.1312 27.3608 14.1305L27.3608 18.6275C27.3608 18.8404 27.1889 19.0131 26.9753 19.0131Z" fill="#3797E4"/>
<path fill-rule="evenodd" clip-rule="evenodd" d="M32.3726 19.0131C32.1598 19.0131 31.9871 18.8404 31.9871 18.6276L31.9871 14.1304C31.9871 13.5562 31.4522 13.0891 30.7944 13.0891C30.1368 13.0891 29.601 13.5563 29.601 14.1305L29.6011 18.6275C29.6011 18.8404 29.4284 19.0131 29.2156 19.0131C29.0028 19.0131 28.8301 18.8404 28.8301 18.6276L28.8301 14.1304C28.8301 13.1312 29.7111 12.3181 30.7944 12.3181C31.8771 12.3181 32.758 13.1312 32.758 14.1305L32.7581 18.6275C32.7581 18.8404 32.5854 19.0131 32.3726 19.0131Z" fill="#3797E4"/>
<path fill-rule="evenodd" clip-rule="evenodd" d="M9.20588 13.0891C8.99303 13.0891 8.82031 12.9166 8.82031 12.7037L8.82034 8.79724C8.82034 8.6759 8.87731 8.56164 8.9745 8.48888L9.58731 8.0292L8.97457 7.56967C8.87736 7.49685 8.82031 7.38261 8.82031 7.26125C8.82034 7.13998 8.87731 7.0257 8.9745 6.95287L9.58731 6.49325L8.97457 6.03355C8.87736 5.96081 8.82031 5.84658 8.82031 5.72524L8.82034 4.96626C8.82034 4.75341 8.993 4.58081 9.20581 4.58081C9.41864 4.58074 9.59128 4.75341 9.59128 4.96631L9.59131 5.5325L10.4611 6.18481C10.5583 6.25763 10.6153 6.37198 10.6153 6.49325C10.6153 6.61459 10.5582 6.7289 10.4611 6.80166L9.84836 7.26123L10.4611 7.72075C10.5583 7.79355 10.6153 7.90793 10.6153 8.02927C10.6153 8.15061 10.5582 8.26482 10.4611 8.33765L9.59131 8.98998V12.7036C9.59131 12.9165 9.41862 13.0891 9.20588 13.0891Z" fill="#3797E4"/>
<path fill-rule="evenodd" clip-rule="evenodd" d="M14.6027 13.0891C14.3899 13.0891 14.2172 12.9166 14.2172 12.7036L14.2172 7.14997C14.2172 7.05195 14.2541 6.95765 14.3216 6.88627L15.0982 6.05811L14.3208 5.22987C14.1755 5.07466 14.1834 4.83073 14.3385 4.68503C14.4943 4.53952 14.7376 4.54732 14.8838 4.70254L15.9077 5.79437C16.0467 5.94266 16.0467 6.1735 15.9077 6.32186L14.9883 7.30238V12.7036C14.9883 12.9165 14.8155 13.0891 14.6027 13.0891Z" fill="#3797E4"/>
<path fill-rule="evenodd" clip-rule="evenodd" d="M18.976 13.4323C18.96 13.4323 18.943 13.4313 18.927 13.4292C18.7158 13.4025 18.5664 13.2096 18.5929 12.9983L19.6169 4.91782C19.641 4.72529 19.8048 4.58081 19.9991 4.58081C20.1935 4.58081 20.3573 4.72529 20.3814 4.91796L21.4054 12.9983C21.4319 13.2095 21.2825 13.4024 21.0713 13.4292C20.8601 13.4561 20.6673 13.3064 20.64 13.0952L19.9991 8.03358L19.3575 13.0952C19.3334 13.2899 19.1671 13.4324 18.976 13.4323Z" fill="#3797E4"/>
<path fill-rule="evenodd" clip-rule="evenodd" d="M30.7951 13.0891C30.5822 13.0891 30.4095 12.9166 30.4095 12.7037L30.4095 8.98998L29.5397 8.33762C29.4426 8.26482 29.3848 8.15061 29.3848 8.02927C29.3848 7.90786 29.4426 7.79365 29.5397 7.7208L30.1526 7.26123L29.5397 6.80163C29.4426 6.7289 29.3848 6.61462 29.3848 6.49325C29.3848 6.37191 29.4426 6.2577 29.5397 6.18485L30.4095 5.5325V4.96626C30.4095 4.75341 30.5822 4.58081 30.795 4.58081C31.0078 4.58074 31.1805 4.75341 31.1805 4.96631L31.1806 5.72519C31.1806 5.84653 31.1227 5.96086 31.0263 6.03364L30.4136 6.49325L31.0264 6.95285C31.1227 7.02567 31.1805 7.14 31.1805 7.26125C31.1806 7.38257 31.1227 7.49689 31.0263 7.56972L30.4136 8.0292L31.0264 8.48888C31.1227 8.56162 31.1805 8.67592 31.1805 8.79729L31.1806 12.7036C31.1806 12.9165 31.0078 13.0891 30.7951 13.0891Z" fill="#3797E4"/>
<path fill-rule="evenodd" clip-rule="evenodd" d="M25.3976 13.0891C25.1847 13.0891 25.012 12.9166 25.012 12.7037L25.0121 7.30243L24.0925 6.32188C23.9535 6.17353 23.9535 5.94275 24.0925 5.79449L25.1165 4.70257C25.2618 4.54734 25.506 4.53947 25.6617 4.68508C25.8168 4.83076 25.8248 5.07475 25.6786 5.22998L24.902 6.05816L25.6787 6.8863C25.7461 6.95767 25.783 7.05207 25.783 7.15006L25.783 12.7036C25.783 12.9166 25.6104 13.0891 25.3976 13.0891Z" fill="#3797E4"/>
</svg>
