<svg width="44" height="45" viewBox="0 0 44 45" fill="none" xmlns="http://www.w3.org/2000/svg">
<path fill-rule="evenodd" clip-rule="evenodd" d="M21.5532 24.8261C21.83 24.9801 22.1674 24.9801 22.4442 24.8261L38.9442 15.6594C39.2357 15.4981 39.4154 15.1919 39.4154 14.8582C39.4154 14.5264 39.2357 14.2184 38.9442 14.0571L22.4442 4.8904C22.1674 4.7364 21.83 4.7364 21.5532 4.8904L5.0532 14.0571C4.7617 14.2184 4.58203 14.5264 4.58203 14.8582C4.58203 15.1919 4.7617 15.4981 5.0532 15.6594L21.5532 24.8261ZM21.9987 22.9762L7.38703 14.8582L21.9987 6.74024L36.6104 14.8582L21.9987 22.9762Z" fill="white"/>
<path fill-rule="evenodd" clip-rule="evenodd" d="M5.0531 22.9926L21.5531 32.1593C21.8299 32.3133 22.1673 32.3133 22.4441 32.1593L38.9441 22.9926C39.3859 22.747 39.5454 22.1896 39.2998 21.746C39.0541 21.3041 38.4949 21.1446 38.0531 21.3903L21.9986 30.3095L5.9441 21.3903C5.50226 21.1446 4.9431 21.3041 4.69743 21.746C4.45176 22.1896 4.61126 22.747 5.0531 22.9926Z" fill="white"/>
<path fill-rule="evenodd" clip-rule="evenodd" d="M5.0531 30.3256L21.5531 39.4923C21.8299 39.6463 22.1673 39.6463 22.4441 39.4923L38.9441 30.3256C39.3859 30.08 39.5454 29.5226 39.2998 29.079C39.0541 28.6371 38.4949 28.4776 38.0531 28.7233L21.9986 37.6425L5.9441 28.7233C5.50226 28.4776 4.9431 28.6371 4.69743 29.079C4.45176 29.5226 4.61126 30.08 5.0531 30.3256Z" fill="white"/>
</svg>
