<svg width="59" height="59" viewBox="0 0 59 59" fill="none" xmlns="http://www.w3.org/2000/svg">
<path fill-rule="evenodd" clip-rule="evenodd" d="M58.6833 31.3925L44.9758 33.7328L55.5741 44.8947L35.8903 58.2396L29.7976 45.4131L23.8975 58.3934L4.21091 45.0466L14.5812 33.7744L0.951172 31.54L8.35533 9.32756L20.3433 15.8664L17.9084 0.0390625H41.7092L39.289 15.8809L51.1042 9.16035L58.6833 31.3925ZM36.0241 20.6262L38.7858 2.5497H20.8348L23.5965 20.5008L9.78801 12.9689L4.26461 29.5391L19.5795 32.0496L8.03057 44.6028L22.8433 54.6455L29.7475 39.4561L36.9029 54.52L51.7156 44.4774L39.9156 32.0496L55.3561 29.4135L49.7071 12.8434L36.0241 20.6262Z" fill="#3797E4"/>
</svg>
