<svg width="40" height="40" viewBox="0 0 40 40" fill="none" xmlns="http://www.w3.org/2000/svg">
<path fill-rule="evenodd" clip-rule="evenodd" d="M4.06399 4.68486C3.54139 4.68486 3.11474 5.11089 3.11474 5.6344L3.11497 31.4438C3.11497 31.9673 3.54119 32.3934 4.06399 32.3934L35.9361 32.3933C36.4593 32.3933 36.885 31.9675 36.885 31.4439L36.885 5.63426C36.885 5.11077 36.4593 4.68497 35.9357 4.68497L4.06399 4.68486ZM35.9361 33.1642H4.06399C3.11569 33.1642 2.34375 32.3925 2.34375 31.4439V5.63424C2.34375 4.68576 3.11555 3.91396 4.06399 3.91396L35.9361 3.91382C36.8843 3.91382 37.6559 4.68576 37.6559 5.6344L37.6563 31.4438C37.6563 32.3925 36.8842 33.1643 35.9357 33.1643L35.9361 33.1642Z" fill="#3797E4"/>
<path fill-rule="evenodd" clip-rule="evenodd" d="M33.2224 20.1568C33.0096 20.1568 32.8367 19.9844 32.8367 19.7715L32.8368 17.3069C32.8368 17.094 33.0094 16.9214 33.2222 16.9214C33.4353 16.9214 33.6077 17.094 33.6077 17.3069L33.608 19.7714C33.608 19.9842 33.435 20.157 33.2224 20.1568ZM32.4515 29.1165H7.54707C6.90957 29.1165 6.39062 28.5978 6.39062 27.9601V9.11838C6.39062 8.48052 6.90943 7.96191 7.54707 7.96191H32.4515C33.0891 7.96191 33.6077 8.48068 33.6077 9.11838L33.608 11.142C33.608 11.3549 33.435 11.5275 33.2222 11.5275C33.0096 11.5274 32.8367 11.3549 32.8367 11.142L32.8368 9.11838C32.8368 8.90571 32.664 8.73291 32.4512 8.73291L7.54723 8.73279C7.33546 8.73279 7.16176 8.90581 7.16176 9.11838L7.16199 27.96C7.16199 28.1726 7.33523 28.3455 7.54723 28.3455L32.4517 28.3455C32.6642 28.3455 32.8368 28.1727 32.8368 27.9601L32.8369 25.9364C32.8369 25.7236 33.0095 25.551 33.2223 25.551C33.4354 25.551 33.6078 25.7236 33.6078 25.9365L33.6082 27.96C33.6082 28.5977 33.0892 29.1165 32.4515 29.1165Z" fill="#3797E4"/>
<path fill-rule="evenodd" clip-rule="evenodd" d="M12.479 36.0862H8.24415C7.65796 36.0862 7.18164 35.6094 7.18164 35.0232V32.7788C7.18164 32.5657 7.35343 32.3933 7.56714 32.3933C7.78013 32.3932 7.95259 32.5659 7.95259 32.7788L7.95287 35.023C7.95287 35.1842 8.0835 35.3153 8.24415 35.3153L12.479 35.3152C12.6405 35.3152 12.7712 35.1843 12.7712 35.0232L12.7713 32.7788C12.7713 32.5657 12.9439 32.3933 13.1567 32.3933C13.3698 32.3932 13.5421 32.5659 13.5421 32.7788L13.5422 35.023C13.5422 35.6094 13.0651 36.0862 12.479 36.0862Z" fill="#3797E4"/>
<path fill-rule="evenodd" clip-rule="evenodd" d="M31.7545 36.0862H27.5197C26.9336 36.0862 26.457 35.6094 26.457 35.0232L26.4572 32.7788C26.4572 32.5657 26.6297 32.3933 26.8426 32.3933C27.0554 32.3932 27.228 32.5659 27.228 32.7788L27.2281 35.023C27.2281 35.1842 27.3589 35.3153 27.5195 35.3153L31.7545 35.3152C31.9157 35.3152 32.0466 35.1843 32.0466 35.0232L32.0469 32.7788C32.0469 32.5657 32.2193 32.3933 32.4321 32.3933C32.645 32.3932 32.8176 32.5659 32.8176 32.7788L32.8178 35.023C32.8178 35.6094 32.3406 36.0862 31.7545 36.0862Z" fill="#3797E4"/>
<path fill-rule="evenodd" clip-rule="evenodd" d="M33.2233 11.5272C32.824 11.5272 32.4995 11.8518 32.4995 12.2507L32.4998 16.1977C32.4998 16.5965 32.824 16.9212 33.2231 16.9212C33.6223 16.9212 33.9466 16.5966 33.9466 16.1977L33.9468 12.2507C33.9468 11.8518 33.6222 11.5273 33.2233 11.5272ZM33.2233 17.6921C32.3993 17.6921 31.7285 17.0218 31.7285 16.1977L31.7286 12.2507C31.7286 11.4266 32.3991 10.7563 33.2231 10.7563C34.0473 10.7562 34.7177 11.4267 34.7177 12.2507V16.1977C34.7177 17.0217 34.0471 17.6922 33.2233 17.6921Z" fill="#3797E4"/>
<path fill-rule="evenodd" clip-rule="evenodd" d="M33.2233 20.1568C32.824 20.1568 32.4995 20.4815 32.4995 20.8804L32.4998 24.8273C32.4998 25.2263 32.824 25.5508 33.2231 25.5508C33.6223 25.5508 33.9466 25.2263 33.9466 24.8273L33.9468 20.8804C33.9468 20.4814 33.6222 20.1569 33.2233 20.1568ZM33.2233 26.3217C32.3993 26.3217 31.7285 25.6514 31.7285 24.8273L31.7286 20.8804C31.7286 20.0562 32.3991 19.3859 33.2231 19.3859C34.0473 19.3858 34.7177 20.0563 34.7177 20.8804V24.8273C34.7177 25.6513 34.0471 26.3218 33.2233 26.3217Z" fill="#3797E4"/>
<path fill-rule="evenodd" clip-rule="evenodd" d="M10.5803 14.3712C10.3685 14.3712 10.1948 14.5442 10.1948 14.7568L10.1951 22.3216C10.1951 22.424 10.235 22.5207 10.308 22.5938C10.3812 22.6669 10.4783 22.7071 10.5803 22.7071L23.4243 22.707C23.4741 22.707 23.5238 22.7169 23.5696 22.7356C24.1127 22.9565 24.6867 23.0688 25.277 23.0688C27.7748 23.0687 29.8072 21.0369 29.8072 18.5393C29.8076 16.0416 27.7747 14.0096 25.277 14.0096C24.687 14.0095 24.1125 14.1218 23.5696 14.3428C23.524 14.3615 23.474 14.3713 23.4243 14.3713L10.5803 14.3712ZM25.2772 23.8396C24.6129 23.8396 23.9647 23.7181 23.3504 23.4782H10.5803C10.2721 23.4782 9.98199 23.3577 9.76351 23.139C9.54457 22.9202 9.42383 22.63 9.42383 22.3216L9.42387 14.7567C9.42387 14.119 9.94264 13.6003 10.5803 13.6003L23.3505 13.6002C23.9649 13.3602 24.6128 13.2388 25.277 13.2388C28.2005 13.2386 30.5774 15.6165 30.5774 18.5393C30.5777 21.462 28.2003 23.8397 25.2772 23.8396Z" fill="#3797E4"/>
<path fill-rule="evenodd" clip-rule="evenodd" d="M25.2759 16.3951C24.0938 16.3951 23.1323 17.3569 23.1323 18.5392C23.1325 19.7212 24.0936 20.6831 25.2758 20.6831C26.458 20.683 27.4201 19.7213 27.4201 18.5392C27.4201 17.3568 26.4579 16.3951 25.2759 16.3951ZM25.2759 21.4541C23.6688 21.4541 22.3613 20.1464 22.3613 18.5392C22.3617 16.9316 23.6688 15.6241 25.2758 15.6241C26.8837 15.6241 28.191 16.9318 28.191 18.5392C28.1913 20.1464 26.8836 21.4541 25.2759 21.4541Z" fill="#3797E4"/>
<path fill-rule="evenodd" clip-rule="evenodd" d="M25.2762 16.3951C25.0634 16.3951 24.8906 16.2226 24.8906 16.0097V15.1362C24.8906 14.9231 25.0633 14.7507 25.2761 14.7507C25.4898 14.7506 25.6615 14.9233 25.6615 15.1362L25.6618 16.0095C25.6618 16.2226 25.4897 16.3951 25.2762 16.3951Z" fill="#3797E4"/>
<path fill-rule="evenodd" clip-rule="evenodd" d="M27.0654 17.136C26.9667 17.136 26.8677 17.0985 26.7923 17.0231C26.6422 16.8726 26.6421 16.6286 26.7923 16.478L27.4102 15.8603C27.5609 15.7098 27.8049 15.7098 27.9551 15.8604C28.1055 16.0108 28.1053 16.255 27.9551 16.4056L27.3375 17.0231C27.2624 17.0984 27.1633 17.1361 27.0654 17.136Z" fill="#3797E4"/>
<path fill-rule="evenodd" clip-rule="evenodd" d="M28.6794 18.9245H27.8056C27.5927 18.9245 27.4199 18.752 27.4199 18.5391C27.4199 18.3262 27.5926 18.1536 27.8054 18.1536L28.6794 18.1534C28.8923 18.1534 29.0647 18.3262 29.0647 18.5391C29.0647 18.7519 28.892 18.9246 28.6791 18.9246L28.6794 18.9245Z" fill="#3797E4"/>
<path fill-rule="evenodd" clip-rule="evenodd" d="M27.683 21.3306C27.5844 21.3306 27.4853 21.2931 27.4098 21.2179L26.7925 20.6003C26.6422 20.4498 26.6421 20.2056 26.7922 20.0551C26.9432 19.9044 27.1873 19.9046 27.3375 20.0551L27.9552 20.6727C28.1055 20.8231 28.1053 21.0673 27.9551 21.2179C27.8796 21.2931 27.7808 21.3308 27.683 21.3306Z" fill="#3797E4"/>
<path fill-rule="evenodd" clip-rule="evenodd" d="M25.2762 22.3274C25.0634 22.3274 24.8906 22.1549 24.8906 21.9421V21.0685C24.8906 20.8556 25.0633 20.6831 25.2761 20.6831C25.4898 20.683 25.6615 20.8557 25.6615 21.0686L25.6618 21.942C25.6618 22.1548 25.4897 22.3274 25.2762 22.3274Z" fill="#3797E4"/>
<path fill-rule="evenodd" clip-rule="evenodd" d="M22.8699 21.3306C22.7712 21.3306 22.6723 21.2931 22.5976 21.2179C22.4467 21.0672 22.4466 20.8232 22.5976 20.6727L23.2154 20.0551C23.3653 19.9044 23.6095 19.9046 23.7605 20.0551C23.9107 20.2056 23.9106 20.4498 23.7605 20.6003L23.1431 21.2177C23.0675 21.2931 22.9686 21.3308 22.8699 21.3306Z" fill="#3797E4"/>
<path fill-rule="evenodd" clip-rule="evenodd" d="M22.7476 18.9245H21.8738C21.6612 18.9245 21.4883 18.752 21.4883 18.5391C21.4885 18.3262 21.6609 18.1536 21.8738 18.1536L22.7476 18.1534C22.9605 18.1534 23.1331 18.3262 23.1331 18.5391C23.1332 18.7519 22.9604 18.9246 22.7476 18.9245Z" fill="#3797E4"/>
<path fill-rule="evenodd" clip-rule="evenodd" d="M23.4875 17.136C23.3888 17.136 23.2906 17.0985 23.2151 17.0231L22.5977 16.4055C22.4467 16.2549 22.4466 16.0109 22.5976 15.8604C22.7477 15.7098 22.9919 15.7098 23.1428 15.8604L23.7607 16.4779C23.9107 16.6284 23.9106 16.8726 23.7604 17.0231C23.6852 17.0984 23.5861 17.136 23.4875 17.136Z" fill="#3797E4"/>
<path fill-rule="evenodd" clip-rule="evenodd" d="M12.3139 20.5868H19.3676V16.4915H12.3139V20.5868ZM19.7532 21.3577H11.9287C11.7158 21.3577 11.543 21.1852 11.543 20.9723L11.5431 16.1059C11.5431 15.893 11.7156 15.7205 11.9284 15.7205L19.7532 15.7205C19.9661 15.7205 20.1385 15.8931 20.1385 16.106L20.1388 20.9722C20.1388 21.1851 19.9658 21.3578 19.753 21.3578L19.7532 21.3577Z" fill="#3797E4"/>
<path fill-rule="evenodd" clip-rule="evenodd" d="M13.6015 18.2908C13.389 18.2908 13.2168 18.1183 13.2168 17.9054L13.217 17.6045C13.217 17.3917 13.3887 17.2191 13.6015 17.2191C13.8154 17.2191 13.9869 17.3918 13.9869 17.6047L13.9871 17.9052C13.9871 18.1182 13.8151 18.2909 13.6015 18.2908Z" fill="#3797E4"/>
<path fill-rule="evenodd" clip-rule="evenodd" d="M13.6015 19.8589C13.389 19.8589 13.2168 19.6864 13.2168 19.4735L13.217 19.1728C13.217 18.9597 13.3887 18.7874 13.6015 18.7874C13.8154 18.7872 13.9869 18.9599 13.9869 19.1728L13.9871 19.4735C13.9871 19.6863 13.8151 19.859 13.6015 19.8589Z" fill="#3797E4"/>
<path fill-rule="evenodd" clip-rule="evenodd" d="M15.0948 18.2908C14.8819 18.2908 14.709 18.1183 14.709 17.9054L14.7092 17.6045C14.7092 17.3917 14.8817 17.2191 15.0945 17.2191C15.3076 17.2191 15.48 17.3918 15.48 17.6047L15.48 17.9052C15.48 18.1182 15.3073 18.2909 15.0948 18.2908Z" fill="#3797E4"/>
<path fill-rule="evenodd" clip-rule="evenodd" d="M15.0948 19.8589C14.8819 19.8589 14.709 19.6864 14.709 19.4735L14.7092 19.1728C14.7092 18.9597 14.8817 18.7874 15.0945 18.7874C15.3076 18.7872 15.48 18.9599 15.48 19.1728L15.48 19.4735C15.48 19.6863 15.3073 19.859 15.0945 19.859L15.0948 19.8589Z" fill="#3797E4"/>
<path fill-rule="evenodd" clip-rule="evenodd" d="M16.5869 18.2908C16.374 18.2908 16.2012 18.1183 16.2012 17.9054L16.2012 17.6045C16.2012 17.3917 16.3738 17.2191 16.5866 17.2191C16.8004 17.2191 16.9721 17.3918 16.9721 17.6047V17.9052C16.9721 18.1182 16.8003 18.2909 16.5869 18.2908Z" fill="#3797E4"/>
<path fill-rule="evenodd" clip-rule="evenodd" d="M16.5869 19.8589C16.374 19.8589 16.2012 19.6864 16.2012 19.4735L16.2012 19.1728C16.2012 18.9597 16.3738 18.7874 16.5866 18.7874C16.8004 18.7872 16.9721 18.9599 16.9721 19.1728V19.4735C16.9721 19.6863 16.8003 19.859 16.5869 19.8589Z" fill="#3797E4"/>
<path fill-rule="evenodd" clip-rule="evenodd" d="M18.0809 18.2908C17.8681 18.2908 17.6953 18.1183 17.6953 17.9054V17.6045C17.6953 17.3917 17.868 17.2191 18.0808 17.2191C18.2938 17.2191 18.4663 17.3918 18.4663 17.6047L18.4665 17.9052C18.4665 18.1182 18.2937 18.2909 18.0809 18.2908Z" fill="#3797E4"/>
<path fill-rule="evenodd" clip-rule="evenodd" d="M18.0809 19.8589C17.8681 19.8589 17.6953 19.6864 17.6953 19.4735V19.1728C17.6953 18.9597 17.868 18.7874 18.0808 18.7874C18.2938 18.7872 18.4663 18.9599 18.4663 19.1728L18.4665 19.4735C18.4665 19.6863 18.2937 19.859 18.0809 19.8589Z" fill="#3797E4"/>
</svg>
