<svg width="81" height="81" viewBox="0 0 81 81" fill="none" xmlns="http://www.w3.org/2000/svg">
<path d="M75.2729 29.852H57.3229C58.8171 26.579 59.2895 22.9315 58.6785 19.3858C58.0675 15.8401 56.4014 12.5611 53.8979 9.97701C47.7729 3.60201 35.9229 2.96451 29.1479 9.97701C26.576 12.5459 24.8679 15.852 24.2608 19.4361C23.6538 23.0202 24.1779 26.7044 25.7604 29.977L24.3729 38.0645C24.3104 38.5395 24.3104 39.727 25.8229 39.5145L32.7729 38.2895V58.602C32.7729 58.9335 32.9046 59.2515 33.139 59.4859C33.3734 59.7203 33.6914 59.852 34.0229 59.852H40.1979L35.8604 64.202C33.5354 65.0645 28.3604 62.952 22.9979 57.752C18.2229 52.9895 15.6104 47.2645 16.5479 44.8895L21.2479 40.202C21.3651 40.0858 21.4581 39.9476 21.5215 39.7952C21.585 39.6429 21.6177 39.4795 21.6177 39.3145C21.6177 39.1495 21.585 38.9861 21.5215 38.8338C21.4581 38.6815 21.3651 38.5432 21.2479 38.427L13.3479 30.527C13.2317 30.4099 13.0935 30.3169 12.9411 30.2534C12.7888 30.1899 12.6254 30.1573 12.4604 30.1573C12.2954 30.1573 12.132 30.1899 11.9797 30.2534C11.8274 30.3169 11.6891 30.4099 11.5729 30.527C10.8354 31.4895 6.66041 35.427 6.01041 36.377C1.32291 43.2895 5.16041 55.7895 15.0854 65.6645C22.1729 72.7395 30.5479 76.727 37.2729 76.727C39.7615 76.7997 42.2141 76.1201 44.3104 74.777C44.8229 74.4645 49.8729 69.4895 50.2229 69.177C50.3401 69.0608 50.4331 68.9226 50.4965 68.7702C50.56 68.6179 50.5927 68.4545 50.5927 68.2895C50.5927 68.1245 50.56 67.9611 50.4965 67.8088C50.4331 67.6565 50.3401 67.5182 50.2229 67.402L42.7229 59.902H75.2729C75.6044 59.902 75.9224 59.7703 76.1568 59.5359C76.3912 59.3015 76.5229 58.9835 76.5229 58.652V31.152C76.5296 30.9837 76.5023 30.8158 76.4425 30.6583C76.3827 30.5008 76.2917 30.357 76.1749 30.2356C76.0582 30.1142 75.9181 30.0176 75.7631 29.9517C75.6081 29.8858 75.4414 29.8519 75.2729 29.852ZM43.2479 72.477C37.5354 76.752 25.9354 72.977 16.8604 63.8895C7.78541 54.802 4.02291 43.2895 8.27291 37.502C8.67291 36.9645 12.0229 33.752 12.4604 33.177L18.5979 39.3145L14.2104 43.702C12.7729 47.8145 15.7604 53.8395 21.2354 59.5395C26.5229 64.6145 32.5604 68.0395 37.0479 66.5395L41.4354 62.152L47.5729 68.2895L43.2479 72.477ZM74.0229 32.352V34.1895L54.6354 47.1145L43.2729 39.777C45.7783 39.4992 48.1965 38.694 50.3682 37.4142C52.54 36.1344 54.416 34.4092 55.8729 32.352H74.0229ZM28.1729 29.202C26.7125 26.3722 26.1906 23.151 26.6828 20.0048C27.1749 16.8586 28.6556 13.9507 30.9104 11.702C36.1104 6.30201 46.2479 5.63951 52.1604 11.702C57.5604 16.8895 58.2229 27.0395 52.1604 32.952C49.9117 35.2068 47.0038 36.6875 43.8576 37.1796C40.7114 37.6718 37.4902 37.1499 34.6604 35.6895C34.4142 35.577 34.1419 35.5337 33.8729 35.5645L27.1229 36.727L28.2854 29.977C28.3261 29.7132 28.2869 29.4433 28.1729 29.202ZM35.2729 57.352V38.677C36.2474 39.0596 37.2561 39.3484 38.2854 39.5395L54.0229 49.652C54.2479 49.652 54.2854 50.0895 55.3854 49.652L74.1354 37.152V57.352H35.2729Z" fill="white"/>
<path d="M35.2734 19.8521H47.7734C48.105 19.8521 48.4229 19.7204 48.6573 19.4859C48.8917 19.2515 49.0234 18.9336 49.0234 18.6021C49.0234 18.2705 48.8917 17.9526 48.6573 17.7182C48.4229 17.4837 48.105 17.3521 47.7734 17.3521H35.2734C34.9419 17.3521 34.624 17.4837 34.3896 17.7182C34.1551 17.9526 34.0234 18.2705 34.0234 18.6021C34.0234 18.9336 34.1551 19.2515 34.3896 19.4859C34.624 19.7204 34.9419 19.8521 35.2734 19.8521Z" fill="white"/>
<path d="M32.7734 26.1021H50.2734C50.605 26.1021 50.9229 25.9704 51.1573 25.7359C51.3917 25.5015 51.5234 25.1836 51.5234 24.8521C51.5234 24.5205 51.3917 24.2026 51.1573 23.9682C50.9229 23.7337 50.605 23.6021 50.2734 23.6021H32.7734C32.4419 23.6021 32.124 23.7337 31.8896 23.9682C31.6551 24.2026 31.5234 24.5205 31.5234 24.8521C31.5234 25.1836 31.6551 25.5015 31.8896 25.7359C32.124 25.9704 32.4419 26.1021 32.7734 26.1021Z" fill="white"/>
</svg>
