<svg width="40" height="40" viewBox="0 0 40 40" fill="none" xmlns="http://www.w3.org/2000/svg">
<path fill-rule="evenodd" clip-rule="evenodd" d="M20.639 23.4808C20.4261 23.4808 20.2534 23.309 20.2534 23.0954L20.2534 20.3552C20.2534 20.1423 20.4261 19.9697 20.6389 19.9697C20.8517 19.9697 21.0244 20.1424 21.0244 20.3552L21.0244 23.0954C21.0244 23.3089 20.8517 23.4809 20.639 23.4808ZM12.0402 37.6555C11.9157 37.6555 11.7903 37.6427 11.661 37.617C9.54492 37.1913 8.19724 35.9747 7.65035 33.9974C5.13843 34.4174 4.20586 33.8448 3.13616 32.4531C3.08481 32.3855 3.05664 32.3037 3.05664 32.2186V7.78099C3.05664 7.69587 3.08474 7.61402 3.13616 7.54657C4.20586 6.15471 5.13827 5.58217 7.65035 6.00218C8.19726 4.02494 9.54485 2.80829 11.661 2.38263C11.9196 2.33035 12.1606 2.33123 12.4192 2.38263C14.5354 2.80822 15.8837 4.02494 16.4306 6.00218C18.9421 5.58217 19.8743 6.15478 20.9441 7.54657C20.9963 7.61393 21.0244 7.69594 21.0244 7.78106L21.0244 15.7341C21.0244 15.9469 20.8517 16.1196 20.6389 16.1196C20.4261 16.1196 20.2534 15.9469 20.2534 15.7341L20.2534 7.91354C19.3692 6.78759 18.6672 6.35236 16.2162 6.82376C16.0099 6.86305 15.8106 6.73221 15.7665 6.5274C15.3538 4.63766 14.2092 3.52945 12.2674 3.13835C12.1085 3.10698 11.9726 3.10621 11.8136 3.13835C9.8718 3.52945 8.7273 4.63771 8.31454 6.5274C8.26956 6.73211 8.07038 6.86393 7.86475 6.82376C5.41382 6.35231 4.7118 6.78762 3.82761 7.91356L3.82766 32.0861C4.7118 33.212 5.41292 33.6473 7.86475 33.1759C8.07043 33.1365 8.26956 33.2674 8.31454 33.4722C8.72744 35.3618 9.87173 36.471 11.8136 36.8613C11.9728 36.8934 12.1084 36.8934 12.2674 36.8613C13.6786 36.5769 14.655 35.9233 15.2533 34.8624C15.3578 34.6768 15.593 34.611 15.7785 34.7154C15.9642 34.8197 16.0291 35.0551 15.9247 35.2407C15.2204 36.491 14.0406 37.291 12.4192 37.617C12.2899 37.6427 12.1654 37.6555 12.0402 37.6555Z" fill="#3797E4"/>
<path fill-rule="evenodd" clip-rule="evenodd" d="M6.27058 8.83247C5.92529 8.83247 5.64404 9.11358 5.64404 9.45892C5.64411 9.80416 5.92515 10.0853 6.27044 10.0853C6.61589 10.0853 6.89684 9.80423 6.89684 9.45892C6.89686 9.11354 6.6158 8.83252 6.27058 8.83247ZM6.27058 10.8563C5.49954 10.8563 4.87305 10.2291 4.87305 9.45892C4.87307 8.6879 5.49949 8.06152 6.27044 8.06152C7.04072 8.06152 7.66786 8.68795 7.66786 9.45892C7.66793 10.2291 7.04063 10.8563 6.27058 10.8563Z" fill="#3797E4"/>
<path fill-rule="evenodd" clip-rule="evenodd" d="M17.8115 8.83247C17.4653 8.83247 17.1842 9.11358 17.1842 9.45892C17.1843 9.80416 17.4653 10.0853 17.8114 10.0853C18.1569 10.0853 18.4379 9.80423 18.4379 9.45892C18.4379 9.11354 18.1568 8.83252 17.8115 8.83247ZM17.8115 10.8563C17.0405 10.8563 16.4141 10.2291 16.4141 9.45892C16.4141 8.6879 17.0405 8.06152 17.8114 8.06152C18.5817 8.06152 19.2089 8.68795 19.2089 9.45892C19.2089 10.2291 18.5816 10.8563 17.8115 10.8563Z" fill="#3797E4"/>
<path fill-rule="evenodd" clip-rule="evenodd" d="M6.27058 29.9146C5.92529 29.9146 5.64404 30.1957 5.64404 30.541C5.64411 30.8864 5.92515 31.1675 6.27044 31.1675C6.61589 31.1674 6.89684 30.8864 6.89684 30.541C6.89686 30.1957 6.6158 29.9146 6.27058 29.9146ZM6.27058 31.9384C5.49954 31.9384 4.87305 31.312 4.87305 30.541C4.87307 29.7708 5.49949 29.1437 6.27044 29.1437C7.04072 29.1437 7.66786 29.7709 7.66786 30.541C7.66793 31.312 7.04063 31.9385 6.27058 31.9384Z" fill="#3797E4"/>
<path fill-rule="evenodd" clip-rule="evenodd" d="M12.0406 16.8707C10.3154 16.8707 8.91162 18.2745 8.91162 20.0004C8.91162 21.7254 10.3154 23.1292 12.0405 23.1292C13.3264 23.1292 14.4666 22.3583 14.9453 21.1649C14.9895 21.0556 15.0818 20.9721 15.195 20.9384C17.79 20.1802 20.4714 19.8381 23.1682 19.9225C26.7444 20.0332 30.1953 20.8741 33.4254 22.4217C34.3787 22.8787 35.5263 22.4731 35.9824 21.519C36.2034 21.0564 36.2314 20.536 36.0612 20.0534C35.891 19.5698 35.5423 19.182 35.0798 18.9612C31.3647 17.1807 27.3909 16.213 23.271 16.0845C20.0875 15.9856 16.9298 16.3985 13.8868 17.3124C13.7864 17.3428 13.6772 17.3309 13.5857 17.2787C13.1175 17.012 12.5826 16.8707 12.0406 16.8707ZM12.0406 23.9001C9.88991 23.9001 8.14062 22.1503 8.14062 20.0004C8.14074 17.8496 9.88979 16.0997 12.0405 16.0997C12.6598 16.0996 13.2716 16.2475 13.8193 16.5286C16.8944 15.6226 20.0819 15.2139 23.2943 15.3143C27.5234 15.446 31.6 16.4386 35.413 18.2657C36.0604 18.5756 36.5486 19.1193 36.788 19.7964C37.0274 20.4733 36.9879 21.2034 36.678 21.8515C36.0388 23.1895 34.4301 23.7573 33.0921 23.1172C29.9601 21.6161 26.6127 20.8011 23.1441 20.6926C20.5904 20.6131 18.0477 20.9279 15.5854 21.6283C14.9502 23.0144 13.5784 23.9002 12.0406 23.9001Z" fill="#3797E4"/>
<path fill-rule="evenodd" clip-rule="evenodd" d="M14.4502 10.8884H9.63173C9.41885 10.8884 9.24609 10.7158 9.24609 10.503C9.24612 10.2901 9.41876 10.1175 9.63159 10.1175L14.4502 10.1174C14.664 10.1174 14.8357 10.2901 14.8357 10.503C14.8358 10.7157 14.6638 10.8884 14.4502 10.8884Z" fill="#3797E4"/>
<path fill-rule="evenodd" clip-rule="evenodd" d="M14.4502 13.3218H9.63173C9.41885 13.3218 9.24609 13.1492 9.24609 12.9363C9.24612 12.7235 9.41876 12.5509 9.63159 12.5509L14.4502 12.5508C14.664 12.5508 14.8357 12.7235 14.8357 12.9363C14.8358 13.1492 14.6638 13.3218 14.4502 13.3218Z" fill="#3797E4"/>
<path fill-rule="evenodd" clip-rule="evenodd" d="M20.7394 23.48C17.0434 23.48 14.0366 26.4869 14.0366 30.1827C14.0366 33.8786 17.0434 36.8854 20.7393 36.8854C24.4352 36.8854 27.4419 33.8786 27.4419 30.1827C27.442 26.4868 24.4351 23.4801 20.7394 23.48ZM20.7394 37.6563C16.6179 37.6563 13.2656 34.3034 13.2656 30.1827C13.2658 26.0612 16.6178 22.7091 20.7393 22.7091C24.86 22.7091 28.2121 26.0612 28.2121 30.1827C28.2121 34.3034 24.86 37.6564 20.7394 37.6563Z" fill="#3797E4"/>
<path fill-rule="evenodd" clip-rule="evenodd" d="M25.5054 28.8841C25.3993 28.8841 25.2941 28.84 25.2178 28.7548C24.0188 27.4088 22.4286 26.6668 20.7397 26.6668C19.0509 26.6667 17.4599 27.4088 16.2616 28.7548C16.1196 28.9138 15.8761 28.9275 15.7171 28.7861C15.5582 28.6448 15.5436 28.4007 15.6858 28.2417C17.0326 26.7294 18.8275 25.8966 20.7397 25.8966C22.6512 25.8966 24.446 26.7294 25.7936 28.2417C25.9351 28.4007 25.9205 28.6448 25.7623 28.7861C25.6884 28.852 25.5968 28.8841 25.5054 28.8841Z" fill="#3797E4"/>
<path fill-rule="evenodd" clip-rule="evenodd" d="M24.1423 30.4149C24.0363 30.4149 23.9302 30.3708 23.8539 30.2856C23.0195 29.3483 21.9128 28.832 20.7395 28.832C19.5655 28.832 18.4587 29.3484 17.6243 30.2856C17.4829 30.4446 17.2396 30.4583 17.0798 30.3169C16.9217 30.1756 16.9071 29.9315 17.0485 29.7725C18.0315 28.669 19.3421 28.061 20.7395 28.061C22.1362 28.061 23.4467 28.669 24.4297 29.7725C24.5711 29.9314 24.5575 30.1756 24.3984 30.3169C24.3247 30.3827 24.233 30.4149 24.1423 30.4149Z" fill="#3797E4"/>
<path fill-rule="evenodd" clip-rule="evenodd" d="M22.7785 31.9455C22.6725 31.9455 22.5665 31.9022 22.491 31.8162C22.0205 31.2877 21.3979 30.9971 20.7394 30.9971C20.0802 30.997 19.4585 31.2878 18.9879 31.8162C18.8458 31.9752 18.6024 31.9897 18.4433 31.8475C18.2844 31.7061 18.2707 31.462 18.412 31.3039C19.0305 30.6083 19.8576 30.2261 20.7394 30.2261C21.6213 30.226 22.4476 30.6083 23.066 31.3039C23.2082 31.462 23.1937 31.7062 23.0347 31.8475C22.9616 31.9134 22.87 31.9455 22.7785 31.9455Z" fill="#3797E4"/>
<path fill-rule="evenodd" clip-rule="evenodd" d="M20.7404 33.176C20.4126 33.176 20.146 33.4426 20.146 33.7703C20.1461 34.0979 20.4126 34.3646 20.7403 34.3646C21.068 34.3645 21.3338 34.098 21.3338 33.7703C21.3338 33.4426 21.0679 33.176 20.7404 33.176ZM20.7404 35.1355C19.9871 35.1355 19.375 34.5228 19.375 33.7703C19.375 33.0178 19.987 32.405 20.7403 32.405C21.4928 32.405 22.1047 33.0178 22.1047 33.7703C22.1048 34.5228 21.4928 35.1356 20.7404 35.1355Z" fill="#3797E4"/>
</svg>
