<svg width="31" height="31" viewBox="0 0 31 31" fill="none" xmlns="http://www.w3.org/2000/svg">
<path d="M24.0363 6.82848C22.3481 3.99925 19.2504 2.2417 15.9524 2.2417C14.2633 2.2417 12.5998 2.70152 11.1418 3.57133C6.68905 6.22822 5.22791 12.0125 7.88479 16.4655L15.2761 28.8531C15.4199 29.0941 15.6799 29.2417 15.9606 29.2417C16.2413 29.2417 16.5013 29.0941 16.645 28.8531L24.0371 16.4639C25.8055 13.4851 25.8051 9.79302 24.0363 6.82848ZM22.6675 15.6487L15.9606 26.8891L9.25372 15.6487C7.04713 11.9506 8.26062 7.14679 11.9587 4.9402C13.1697 4.21767 14.5506 3.83565 15.9524 3.83565C18.6922 3.83565 21.2654 5.29542 22.6675 7.64519C24.1365 10.1073 24.1361 13.1746 22.6675 15.6487Z" fill="white"/>
<path d="M15.9607 6.92676C13.3977 6.92676 11.3125 9.01202 11.3125 11.5752C11.3125 14.1382 13.3977 16.2234 15.9607 16.2234C18.5238 16.2234 20.609 14.1382 20.609 11.5752C20.609 9.01202 18.5238 6.92676 15.9607 6.92676ZM15.9607 14.6294C14.2766 14.6294 12.9066 13.2593 12.9066 11.5752C12.9066 9.89101 14.2766 8.52083 15.9607 8.52083C17.6449 8.52083 19.0151 9.89101 19.0151 11.5752C19.0151 13.2592 17.6449 14.6294 15.9607 14.6294Z" fill="white"/>
</svg>
