<svg width="31" height="31" viewBox="0 0 31 31" fill="none" xmlns="http://www.w3.org/2000/svg">
<path fill-rule="evenodd" clip-rule="evenodd" d="M10.1914 3.2417C10.4569 3.2417 10.6722 3.45694 10.6722 3.72247V4.20324H21.2491V3.72247C21.2491 3.45694 21.4643 3.2417 21.7298 3.2417C21.9954 3.2417 22.2106 3.45694 22.2106 3.72247V4.20324H25.576C26.9036 4.20324 27.9798 5.27948 27.9798 6.60708V22.3523C27.9798 22.4994 27.9125 22.6384 27.7969 22.7296L20.946 28.1383C20.8014 28.2525 20.6043 28.2739 20.4385 28.1936C20.2727 28.1133 20.1673 27.945 20.1673 27.7609V24.2753C20.1673 22.9477 21.2436 21.8715 22.5712 21.8715H27.0183V10.934H23.052C22.7864 10.934 22.5712 10.7188 22.5712 10.4532C22.5712 10.1877 22.7864 9.97246 23.052 9.97246H27.0183V6.60708C27.0183 5.81052 26.3726 5.16477 25.576 5.16477H22.2106V6.84746C22.2106 7.11299 21.9954 7.32823 21.7298 7.32823C21.4643 7.32823 21.2491 7.11299 21.2491 6.84746V5.16477H10.6722V6.84746C10.6722 7.11299 10.4569 7.32823 10.1914 7.32823C9.92587 7.32823 9.71063 7.11299 9.71063 6.84746V5.16477H6.34525C5.54869 5.16477 4.90294 5.81052 4.90294 6.60708V9.97246H18.4847C18.7502 9.97246 18.9654 10.1877 18.9654 10.4532C18.9654 10.7188 18.7502 10.934 18.4847 10.934H4.90294V25.8378C4.90294 26.6345 5.54869 27.2801 6.34525 27.2801H18.725C18.9906 27.2801 19.2058 27.4953 19.2058 27.7609C19.2058 28.0265 18.9906 28.2417 18.725 28.2417H6.34525C5.01765 28.2417 3.94141 27.1655 3.94141 25.8378V6.60708C3.94141 5.27948 5.01765 4.20324 6.34525 4.20324H9.71063V3.72247C9.71063 3.45694 9.92587 3.2417 10.1914 3.2417ZM26.1142 22.833H22.5712C21.7746 22.833 21.1289 23.4788 21.1289 24.2753V26.7688L26.1142 22.833Z" fill="white"/>
<path d="M19.5664 10.4532C19.5664 10.1877 19.7816 9.97241 20.0472 9.97241H21.3693C21.6348 9.97241 21.8501 10.1877 21.8501 10.4532C21.8501 10.7187 21.6348 10.9339 21.3693 10.9339H20.0472C19.7816 10.9339 19.5664 10.7187 19.5664 10.4532Z" fill="white"/>
<path fill-rule="evenodd" clip-rule="evenodd" d="M8.98918 13.0974C8.19262 13.0974 7.54688 13.7432 7.54688 14.5397V15.5013C7.54688 16.2978 8.19262 16.9436 8.98918 16.9436H9.95072C10.7473 16.9436 11.393 16.2978 11.393 15.5013V14.5397C11.393 13.7432 10.7473 13.0974 9.95072 13.0974H8.98918ZM8.50841 14.5397C8.50841 14.2742 8.72365 14.0589 8.98918 14.0589H9.95072C10.2162 14.0589 10.4315 14.2742 10.4315 14.5397V15.5013C10.4315 15.7668 10.2162 15.982 9.95072 15.982H8.98918C8.72365 15.982 8.50841 15.7668 8.50841 15.5013V14.5397Z" fill="white"/>
<path fill-rule="evenodd" clip-rule="evenodd" d="M7.54688 21.0302C7.54688 20.2336 8.19262 19.5879 8.98918 19.5879H9.95072C10.7473 19.5879 11.393 20.2336 11.393 21.0302V21.9917C11.393 22.7883 10.7473 23.434 9.95072 23.434H8.98918C8.19262 23.434 7.54688 22.7883 7.54688 21.9917V21.0302ZM8.98918 20.5494C8.72365 20.5494 8.50841 20.7647 8.50841 21.0302V21.9917C8.50841 22.2573 8.72365 22.4725 8.98918 22.4725H9.95072C10.2162 22.4725 10.4315 22.2573 10.4315 21.9917V21.0302C10.4315 20.7647 10.2162 20.5494 9.95072 20.5494H8.98918Z" fill="white"/>
<path fill-rule="evenodd" clip-rule="evenodd" d="M15.4775 13.0974C14.6809 13.0974 14.0352 13.7432 14.0352 14.5397V15.5013C14.0352 16.2978 14.6809 16.9436 15.4775 16.9436H16.439C17.2356 16.9436 17.8813 16.2978 17.8813 15.5013V14.5397C17.8813 13.7432 17.2356 13.0974 16.439 13.0974H15.4775ZM14.9967 14.5397C14.9967 14.2742 15.2119 14.0589 15.4775 14.0589H16.439C16.7045 14.0589 16.9198 14.2742 16.9198 14.5397V15.5013C16.9198 15.7668 16.7045 15.982 16.439 15.982H15.4775C15.2119 15.982 14.9967 15.7668 14.9967 15.5013V14.5397Z" fill="white"/>
<path fill-rule="evenodd" clip-rule="evenodd" d="M14.0352 21.0302C14.0352 20.2336 14.6809 19.5879 15.4775 19.5879H16.439C17.2356 19.5879 17.8813 20.2336 17.8813 21.0302V21.9917C17.8813 22.7883 17.2356 23.434 16.439 23.434H15.4775C14.6809 23.434 14.0352 22.7883 14.0352 21.9917V21.0302ZM15.4775 20.5494C15.2119 20.5494 14.9967 20.7647 14.9967 21.0302V21.9917C14.9967 22.2573 15.2119 22.4725 15.4775 22.4725H16.439C16.7045 22.4725 16.9198 22.2573 16.9198 21.9917V21.0302C16.9198 20.7647 16.7045 20.5494 16.439 20.5494H15.4775Z" fill="white"/>
<path fill-rule="evenodd" clip-rule="evenodd" d="M21.9696 13.0974C21.1731 13.0974 20.5273 13.7432 20.5273 14.5397V15.5013C20.5273 16.2978 21.1731 16.9436 21.9696 16.9436H22.9312C23.7277 16.9436 24.3735 16.2978 24.3735 15.5013V14.5397C24.3735 13.7432 23.7277 13.0974 22.9312 13.0974H21.9696ZM21.4889 14.5397C21.4889 14.2742 21.7041 14.0589 21.9696 14.0589H22.9312C23.1967 14.0589 23.412 14.2742 23.412 14.5397V15.5013C23.412 15.7668 23.1967 15.982 22.9312 15.982H21.9696C21.7041 15.982 21.4889 15.7668 21.4889 15.5013V14.5397Z" fill="white"/>
</svg>
