<svg width="31" height="31" viewBox="0 0 31 31" fill="none" xmlns="http://www.w3.org/2000/svg">
<g clip-path="url(#clip0_220_11010)">
<path d="M10.3359 16.9917C9.22342 16.9917 8.13588 16.6618 7.21085 16.0437C6.28583 15.4256 5.56486 14.5471 5.13912 13.5193C4.71337 12.4915 4.60198 11.3605 4.81902 10.2693C5.03606 9.17818 5.57179 8.1759 6.35846 7.38923C7.14513 6.60256 8.14741 6.06683 9.23855 5.84978C10.3297 5.63274 11.4607 5.74414 12.4885 6.16988C13.5164 6.59562 14.3949 7.31659 15.013 8.24162C15.631 9.16665 15.9609 10.2542 15.9609 11.3667C15.9593 12.858 15.3661 14.2878 14.3116 15.3424C13.2571 16.3969 11.8273 16.99 10.3359 16.9917ZM10.3359 8.2417C9.71787 8.2417 9.11368 8.42498 8.59978 8.76836C8.08588 9.11174 7.68534 9.5998 7.44881 10.1708C7.21229 10.7418 7.1504 11.3702 7.27098 11.9764C7.39156 12.5826 7.68919 13.1394 8.12623 13.5764C8.56327 14.0135 9.12009 14.3111 9.72628 14.4317C10.3325 14.5522 10.9608 14.4904 11.5318 14.2538C12.1028 14.0173 12.5909 13.6168 12.9343 13.1029C13.2777 12.589 13.4609 11.9848 13.4609 11.3667C13.4609 10.5379 13.1317 9.74304 12.5456 9.15699C11.9596 8.57094 11.1647 8.2417 10.3359 8.2417ZM19.7109 29.4917V28.8667C19.7109 26.3803 18.7232 23.9957 16.9651 22.2376C15.2069 20.4794 12.8223 19.4917 10.3359 19.4917C7.84953 19.4917 5.46496 20.4794 3.70681 22.2376C1.94866 23.9957 0.960938 26.3803 0.960938 28.8667L0.960938 29.4917C0.960938 29.8232 1.09263 30.1412 1.32705 30.3756C1.56147 30.61 1.87942 30.7417 2.21094 30.7417C2.54246 30.7417 2.8604 30.61 3.09482 30.3756C3.32924 30.1412 3.46094 29.8232 3.46094 29.4917V28.8667C3.46094 27.0433 4.18527 25.2947 5.47458 24.0053C6.76389 22.716 8.51257 21.9917 10.3359 21.9917C12.1593 21.9917 13.908 22.716 15.1973 24.0053C16.4866 25.2947 17.2109 27.0433 17.2109 28.8667V29.4917C17.2109 29.8232 17.3426 30.1412 17.5771 30.3756C17.8115 30.61 18.1294 30.7417 18.4609 30.7417C18.7925 30.7417 19.1104 30.61 19.3448 30.3756C19.5792 30.1412 19.7109 29.8232 19.7109 29.4917ZM30.9609 23.2417C30.9609 21.5526 30.4719 19.8995 29.5531 18.4822C28.6342 17.0648 27.3247 15.9437 25.7827 15.2542C24.2407 14.5646 22.5321 14.3362 20.8631 14.5964C19.1941 14.8566 17.6361 15.5943 16.3772 16.7205C16.2531 16.8295 16.1519 16.9619 16.0794 17.1103C16.0068 17.2586 15.9644 17.4199 15.9545 17.5847C15.9447 17.7495 15.9675 17.9147 16.0219 18.0706C16.0762 18.2266 16.1609 18.3702 16.271 18.4932C16.3812 18.6162 16.5146 18.7162 16.6636 18.7874C16.8126 18.8586 16.9742 18.8995 17.1391 18.9078C17.3041 18.9162 17.469 18.8918 17.6244 18.836C17.7799 18.7802 17.9227 18.6942 18.0447 18.583C18.944 17.7787 20.0569 17.252 21.2489 17.0663C22.441 16.8806 23.6614 17.0439 24.7627 17.5365C25.864 18.029 26.7992 18.8298 27.4555 19.8422C28.1117 20.8546 28.4609 22.0352 28.4609 23.2417C28.4609 23.5732 28.5926 23.8912 28.8271 24.1256C29.0615 24.36 29.3794 24.4917 29.7109 24.4917C30.0425 24.4917 30.3604 24.36 30.5948 24.1256C30.8292 23.8912 30.9609 23.5732 30.9609 23.2417ZM22.8359 11.9917C21.7234 11.9917 20.6359 11.6618 19.7109 11.0437C18.7858 10.4256 18.0649 9.54713 17.6391 8.5193C17.2134 7.49146 17.102 6.36046 17.319 5.26932C17.5361 4.17818 18.0718 3.1759 18.8585 2.38923C19.6451 1.60256 20.6474 1.06683 21.7386 0.849785C22.8297 0.632743 23.9607 0.744136 24.9885 1.16988C26.0164 1.59562 26.8949 2.31659 27.513 3.24162C28.131 4.16665 28.4609 5.25418 28.4609 6.3667C28.4593 7.85804 27.8661 9.28782 26.8116 10.3424C25.7571 11.3969 24.3273 11.99 22.8359 11.9917ZM22.8359 3.2417C22.2179 3.2417 21.6137 3.42498 21.0998 3.76836C20.5859 4.11174 20.1853 4.5998 19.9488 5.17082C19.7123 5.74184 19.6504 6.37017 19.771 6.97636C19.8916 7.58255 20.1892 8.13937 20.6262 8.57641C21.0633 9.01345 21.6201 9.31108 22.2263 9.43166C22.8325 9.55224 23.4608 9.49035 24.0318 9.25383C24.6028 9.0173 25.0909 8.61676 25.4343 8.10286C25.7777 7.58896 25.9609 6.98477 25.9609 6.3667C25.9609 5.5379 25.6317 4.74304 25.0456 4.15699C24.4596 3.57094 23.6647 3.2417 22.8359 3.2417Z" fill="white"/>
</g>
<defs>
<clipPath id="clip0_220_11010">
<rect width="30" height="30" fill="white" transform="translate(0.960938 0.741699)"/>
</clipPath>
</defs>
</svg>
