<svg width="31" height="31" viewBox="0 0 31 31" fill="none" xmlns="http://www.w3.org/2000/svg">
<path fill-rule="evenodd" clip-rule="evenodd" d="M3.46094 5.48529C3.46094 4.24619 4.46542 3.2417 5.70452 3.2417H12.1148C13.3539 3.2417 14.3584 4.2462 14.3584 5.48529V11.8955C14.3584 13.1346 13.3539 14.1391 12.1148 14.1391H5.70452C4.46544 14.1391 3.46094 13.1347 3.46094 11.8955V5.48529ZM5.70452 5.16477C5.52751 5.16477 5.38401 5.30827 5.38401 5.48529V11.8955C5.38401 12.0726 5.5275 12.216 5.70452 12.216H12.1148C12.2918 12.216 12.4353 12.0726 12.4353 11.8955V5.48529C12.4353 5.30826 12.2918 5.16477 12.1148 5.16477H5.70452Z" fill="white"/>
<path fill-rule="evenodd" clip-rule="evenodd" d="M3.46094 19.5878C3.46094 18.3487 4.46544 17.3442 5.70452 17.3442H12.1148C13.3539 17.3442 14.3584 18.3487 14.3584 19.5878V25.9981C14.3584 27.2372 13.3539 28.2417 12.1148 28.2417H5.70452C4.46544 28.2417 3.46094 27.2372 3.46094 25.9981V19.5878ZM5.70452 19.2673C5.5275 19.2673 5.38401 19.4108 5.38401 19.5878V25.9981C5.38401 26.1751 5.5275 26.3186 5.70452 26.3186H12.1148C12.2918 26.3186 12.4353 26.1751 12.4353 25.9981V19.5878C12.4353 19.4108 12.2918 19.2673 12.1148 19.2673H5.70452Z" fill="white"/>
<path fill-rule="evenodd" clip-rule="evenodd" d="M17.5625 5.48529C17.5625 4.2462 18.567 3.2417 19.8061 3.2417H26.2163C27.4554 3.2417 28.4599 4.2462 28.4599 5.48529V11.8955C28.4599 13.1346 27.4554 14.1391 26.2163 14.1391H19.8061C18.567 14.1391 17.5625 13.1346 17.5625 11.8955V5.48529ZM19.8061 5.16477C19.629 5.16477 19.4856 5.30826 19.4856 5.48529V11.8955C19.4856 12.0726 19.629 12.216 19.8061 12.216H26.2163C26.3934 12.216 26.5368 12.0726 26.5368 11.8955V5.48529C26.5368 5.30826 26.3934 5.16477 26.2163 5.16477H19.8061Z" fill="white"/>
<path fill-rule="evenodd" clip-rule="evenodd" d="M17.5625 19.5878C17.5625 18.3487 18.567 17.3442 19.8061 17.3442H26.2163C27.4554 17.3442 28.4599 18.3487 28.4599 19.5878V25.9981C28.4599 27.2372 27.4554 28.2417 26.2163 28.2417H19.8061C18.567 28.2417 17.5625 27.2372 17.5625 25.9981V19.5878ZM19.8061 19.2673C19.629 19.2673 19.4856 19.4108 19.4856 19.5878V25.9981C19.4856 26.1751 19.629 26.3186 19.8061 26.3186H26.2163C26.3934 26.3186 26.5368 26.1751 26.5368 25.9981V19.5878C26.5368 19.4108 26.3934 19.2673 26.2163 19.2673H19.8061Z" fill="white"/>
</svg>
