<!-- Replace the contents of this editor with your SVG code -->

<svg xmlns="http://www.w3.org/2000/svg" viewBox="0 0 200 200">
  <!-- Background circle -->
  <circle cx="100" cy="100" r="90" fill="#fff5f5" stroke="#e74c3c" stroke-width="4"/>
  
  <!-- Calendar base -->
  <rect x="50" y="60" width="100" height="90" rx="5" fill="white" stroke="#e74c3c" stroke-width="3"/>
  
  <!-- Calendar top bar -->
  <rect x="50" y="60" width="100" height="20" rx="5" fill="#e74c3c" stroke="#e74c3c" stroke-width="0"/>
  
  <!-- Calendar hangers -->
  <rect x="70" y="55" width="6" height="10" rx="2" fill="#e74c3c"/>
  <rect x="124" y="55" width="6" height="10" rx="2" fill="#e74c3c"/>
  
  <!-- Calendar grid lines -->
  <path d="M50 80 L150 80" stroke="#e74c3c" stroke-width="2"/>
  <path d="M83 80 L83 150" stroke="#e74c3c" stroke-width="1.5" stroke-dasharray="2,2"/>
  <path d="M117 80 L117 150" stroke="#e74c3c" stroke-width="1.5" stroke-dasharray="2,2"/>
  <path d="M50 105 L150 105" stroke="#e74c3c" stroke-width="1.5" stroke-dasharray="2,2"/>
  <path d="M50 130 L150 130" stroke="#e74c3c" stroke-width="1.5" stroke-dasharray="2,2"/>
  
  <!-- Computer/device screen -->
  <rect x="85" y="90" width="30" height="25" rx="2" fill="#e74c3c"/>
  <rect x="87" y="92" width="26" height="19" rx="1" fill="white"/>
  
  <!-- Computer/device base -->
  <path d="M95 115 L105 115 L107 120 L93 120 Z" fill="#e74c3c"/>
  
  <!-- Mouse cursor -->
  <path d="M95 97 L99 101 L96 101 L100 109 L98 110 L94 102 L92 102 Z" fill="#e74c3c"/>
  
  <!-- Checkmark in calendar -->
  <path d="M120 125 L125 130 L135 120" stroke="#e74c3c" stroke-width="3" fill="none" stroke-linecap="round" stroke-linejoin="round"/>
  
  <!-- Date numbers -->
  <text x="65" y="98" font-family="Arial" font-size="10" fill="#e74c3c">15</text>
  <text x="100" y="98" font-family="Arial" font-size="10" fill="#e74c3c">16</text>
  <text x="133" y="98" font-family="Arial" font-size="10" fill="#e74c3c">17</text>
  <text x="65" y="123" font-family="Arial" font-size="10" fill="#e74c3c">22</text>
  <text x="100" y="123" font-family="Arial" font-size="10" fill="#e74c3c">23</text>
  <text x="133" y="123" font-family="Arial" font-size="10" fill="#e74c3c">24</text>
  <text x="65" y="145" font-family="Arial" font-size="10" fill="#e74c3c">29</text>
  <text x="100" y="145" font-family="Arial" font-size="10" fill="#e74c3c">30</text>
  <text x="133" y="145" font-family="Arial" font-size="10" fill="#e74c3c">31</text>
</svg>